<svg xmlns="http://www.w3.org/2000/svg">
    <symbol viewBox="0 0 32 32" id="telega">
        <g>
            <path d="M22.987 10.209c.124-.806-.642-1.441-1.358-1.127L7.365 15.345c-.514.225-.476 1.003.056 1.173l2.942.937c.562.179 1.17.086 1.66-.253l6.632-4.582c.2-.138.418.147.247.323l-4.774 4.922c-.463.477-.371 1.286.186 1.636l5.345 3.351c.6.376 1.37-.001 1.483-.726l1.845-11.917z" fill="#fff"/>
        </g>
    </symbol>
    <symbol viewBox="0 0 48 48" id="whatsapp">
        <g>
            <path fill-rule="evenodd" clip-rule="evenodd" d="M24.791 37.352h-.006c-2.388 0-4.735-.6-6.82-1.737L10.4 37.6l2.025-7.395a14.246 14.246 0 0 1-1.905-7.135c.003-7.868 6.405-14.27 14.27-14.27a14.18 14.18 0 0 1 10.096 4.185 14.185 14.185 0 0 1 4.176 10.096c-.003 7.867-6.402 14.268-14.27 14.271zm-6.475-4.32.433.257a11.843 11.843 0 0 0 6.037 1.653h.005c6.538 0 11.859-5.32 11.862-11.861a11.79 11.79 0 0 0-3.471-8.392 11.78 11.78 0 0 0-8.386-3.479c-6.543 0-11.864 5.321-11.867 11.861 0 2.241.626 4.424 1.814 6.313l.282.448-1.199 4.377 4.49-1.177zm13.176-6.878c.25.12.417.201.489.321.089.149.089.863-.208 1.696s-1.722 1.593-2.407 1.695c-.614.092-1.392.13-2.246-.141a20.485 20.485 0 0 1-2.033-.751c-3.343-1.444-5.602-4.684-6.029-5.296-.03-.043-.05-.073-.063-.088l-.002-.004c-.189-.252-1.453-1.94-1.453-3.685 0-1.643.806-2.504 1.178-2.9l.07-.075a1.31 1.31 0 0 1 .95-.446c.238 0 .476.002.684.012.026.002.052.002.08.001.207 0 .467-.002.722.612.099.236.242.586.394.955.307.747.646 1.573.706 1.692.089.179.148.387.03.625l-.05.102c-.09.182-.156.316-.307.493-.06.07-.121.144-.183.22-.123.149-.245.298-.352.404-.179.178-.364.371-.157.728.209.357.924 1.525 1.984 2.47a9.21 9.21 0 0 0 2.632 1.664c.098.043.178.077.236.106.356.179.564.149.772-.089.208-.238.892-1.041 1.13-1.398.237-.357.475-.298.802-.179.327.12 2.08.982 2.436 1.16l.195.096z" fill="#FDFDFD"/>
        </g>
    </symbol>
    <symbol viewBox="0 0 16 13" id="email">
        <g>
            <path d="M16 3.37L16 10.5C16 11.16 15.73 11.79 15.26 12.26C14.79 12.73 14.16 13 13.5 13L2.5 13C1.83 13 1.2 12.73 0.73 12.26C0.26 11.79 0 11.16 0 10.5L0 3.37L7.74 7.93C7.82 7.97 7.91 8 8 8C8.08 8 8.17 7.97 8.25 7.93L16 3.37ZM13.5 0C14.11 -0.01 14.7 0.22 15.16 0.63C15.62 1.04 15.91 1.61 15.98 2.22L8 6.91L0.01 2.22C0.08 1.61 0.37 1.04 0.83 0.63C1.29 0.22 1.88 -0.01 2.5 0L13.5 0Z" fill="#343434" fill-opacity="1.000000" fill-rule="nonzero"/>
        </g>
    </symbol>
    <symbol viewBox="0 0 16 16" id="phone-head">
        <g>
            <path d="M0 5.85C1.91 10.04 5.33 13.35 9.56 15.15L10.24 15.45C10.99 15.79 11.84 15.84 12.63 15.62C13.43 15.39 14.11 14.89 14.57 14.2L15.46 12.88C15.6 12.67 15.66 12.42 15.62 12.17C15.58 11.93 15.45 11.7 15.26 11.54L12.25 9.11C12.14 9.03 12.02 8.97 11.89 8.93C11.76 8.89 11.62 8.88 11.49 8.9C11.36 8.92 11.23 8.96 11.11 9.03C11 9.1 10.89 9.19 10.81 9.3L9.88 10.55C7.49 9.37 5.55 7.44 4.37 5.04L5.63 4.11C5.74 4.03 5.83 3.93 5.9 3.81C5.96 3.7 6.01 3.57 6.02 3.43C6.04 3.3 6.03 3.17 5.99 3.04C5.96 2.91 5.9 2.78 5.81 2.68L3.38 -0.33C3.22 -0.53 3 -0.66 2.75 -0.69C2.51 -0.73 2.25 -0.67 2.05 -0.53L0.71 0.36C0.02 0.82 -0.48 1.51 -0.7 2.31C-0.93 3.11 -0.87 3.96 -0.52 4.71L0 5.85Z" fill="#343434" fill-opacity="1.000000" fill-rule="nonzero"/>
        </g>
    </symbol>
    <symbol viewBox="0 0 14 14" fill="none" id="arrow-phone">
        <path d="M4.08329 5.83333L6.99996 8.75L9.91663 5.83333" stroke="#343434" stroke-width="1.5" stroke-linecap="round" stroke-linejoin="round"/>
    </symbol>
    <symbol viewBox="0 0 16 18" id="enter">
        <g>
            <path d="M5 1H15V15C15 15.5304 14.7893 16.0391 14.4142 16.4142C14.0391 16.7893 13.5304 17 13 17H5M8 12L11 9M11 9L8 6M11 9H1" stroke="#4269F4" stroke-width="2" stroke-linecap="round" stroke-linejoin="round" fill="#fff"/>
        </g>
    </symbol>
    <symbol viewBox="0 0 24 24" id="arrows">
        <g>
            <path d="M4 12h16m0 0-4-4m4 4-4 4" stroke="#FFF" stroke-width="2" stroke-linecap="round" stroke-linejoin="round"/>
        </g>
    </symbol>
    <symbol viewBox="0 0 16 15" fill="none" id="check">
        <g>
            <path d="M8 0C12.1423 0 15.5 3.35775 15.5 7.5C15.5 11.6423 12.1423 15 8 15C3.85775 15 0.5 11.6423 0.5 7.5C0.5 3.35775 3.85775 0 8 0ZM10.415 5.2275L7.0625 8.58L5.585 7.1025C5.47837 7.00314 5.33733 6.94905 5.19161 6.95162C5.04588 6.95419 4.90684 7.01322 4.80378 7.11628C4.70072 7.21934 4.64169 7.35838 4.63912 7.50411C4.63655 7.64983 4.69064 7.79087 4.79 7.8975L6.665 9.7725C6.77047 9.87784 6.91344 9.93701 7.0625 9.93701C7.21156 9.93701 7.35453 9.87784 7.46 9.7725L11.21 6.0225C11.2653 5.971 11.3096 5.9089 11.3403 5.8399C11.3711 5.7709 11.3876 5.69642 11.3889 5.62089C11.3903 5.54536 11.3764 5.47034 11.3481 5.4003C11.3198 5.33026 11.2777 5.26664 11.2243 5.21322C11.1709 5.15981 11.1072 5.1177 11.0372 5.08941C10.9672 5.06112 10.8921 5.04722 10.8166 5.04856C10.7411 5.04989 10.6666 5.06642 10.5976 5.09716C10.5286 5.12791 10.4665 5.17224 10.415 5.2275Z" fill="#CFD4E5"/>
        </g>
    </symbol>
    <symbol viewBox="0 0 27 26" id="pers-consult">
        <g>
            <path d="M25 20.59C26.18 18.77 26.8 16.67 26.8 14.49C26.8 12.01 26.01 9.65 24.5 7.68C23.07 5.81 21.05 4.41 18.81 3.72C16.74 1.49 13.78 0.1 10.5 0.1C4.26 0.1 -0.81 5.15 -0.81 11.36C-0.81 13.54 -0.19 15.64 0.99 17.46L-0.78 21.9C-0.85 22.07 -0.82 22.28 -0.7 22.43C-0.59 22.56 -0.44 22.63 -0.28 22.63C-0.25 22.63 -0.22 22.63 -0.19 22.62L5.98 21.7C6.37 21.87 6.77 22.01 7.17 22.13C9.31 24.44 12.33 25.76 15.49 25.76C17.06 25.76 18.58 25.45 20.01 24.82L26.18 25.75C26.21 25.76 26.24 25.76 26.27 25.76C26.43 25.76 26.58 25.69 26.69 25.56C26.81 25.41 26.84 25.2 26.77 25.03L25 20.59ZM5.98 20.61L0.57 21.42L2.09 17.6C2.16 17.43 2.14 17.24 2.04 17.1C0.88 15.4 0.26 13.42 0.26 11.36C0.26 5.74 4.86 1.17 10.5 1.17C16.15 1.17 20.74 5.74 20.74 11.36C20.74 16.98 16.15 21.56 10.5 21.56C9.03 21.56 7.61 21.25 6.28 20.65C6.21 20.62 6.12 20.59 5.98 20.61ZM20.01 23.74C19.91 23.72 19.81 23.74 19.71 23.78C18.38 24.38 16.96 24.69 15.49 24.69C13.21 24.69 11.01 23.93 9.23 22.56C9.65 22.61 10.07 22.63 10.5 22.63C16.74 22.63 21.82 17.58 21.82 11.36C21.82 9.17 21.19 7.12 20.09 5.39C23.48 7.1 25.73 10.62 25.73 14.49C25.73 16.55 25.11 18.53 23.95 20.23C23.85 20.37 23.83 20.56 23.9 20.73L25.42 24.55L20.01 23.74ZM12.93 16.06L12.93 13.78L15.22 13.78C15.52 13.78 15.76 13.54 15.76 13.24L15.76 9.49C15.76 9.19 15.52 8.95 15.22 8.95L12.93 8.95L12.93 6.66C12.93 6.37 12.69 6.13 12.39 6.13L8.62 6.13C8.32 6.13 8.08 6.37 8.08 6.66L8.08 8.95L5.78 8.95C5.48 8.95 5.24 9.19 5.24 9.49L5.24 13.24C5.24 13.54 5.48 13.78 5.78 13.78L8.08 13.78L8.08 16.06C8.08 16.36 8.32 16.6 8.62 16.6L12.39 16.6C12.69 16.6 12.93 16.36 12.93 16.06ZM11.85 13.24L11.85 15.53L9.16 15.53L9.16 13.24C9.16 12.94 8.92 12.7 8.62 12.7L6.32 12.7L6.32 10.02L8.62 10.02C8.92 10.02 9.16 9.78 9.16 9.49L9.16 7.2L11.85 7.2L11.85 9.49C11.85 9.78 12.09 10.02 12.39 10.02L14.68 10.02L14.68 12.7L12.39 12.7C12.09 12.7 11.85 12.94 11.85 13.24Z" fill="#4269F4" fill-opacity="1.000000" fill-rule="nonzero"/>
            <path fill="none" d="M26.8 14.49C26.8 12.01 26.01 9.65 24.5 7.68C23.07 5.81 21.05 4.41 18.81 3.72C16.74 1.49 13.78 0.1 10.5 0.1C4.26 0.1 -0.81 5.15 -0.81 11.36C-0.81 13.54 -0.19 15.64 0.99 17.46L-0.78 21.9C-0.85 22.07 -0.82 22.28 -0.7 22.43C-0.59 22.56 -0.44 22.63 -0.28 22.63C-0.25 22.63 -0.22 22.63 -0.19 22.62L5.98 21.7C6.37 21.87 6.77 22.01 7.17 22.13C9.31 24.44 12.33 25.76 15.49 25.76C17.06 25.76 18.58 25.45 20.01 24.82L26.18 25.75C26.21 25.76 26.24 25.76 26.27 25.76C26.43 25.76 26.58 25.69 26.69 25.56C26.81 25.41 26.84 25.2 26.77 25.03L25 20.59C26.18 18.77 26.8 16.67 26.8 14.49ZM0.57 21.42L2.09 17.6C2.16 17.43 2.14 17.24 2.04 17.1C0.88 15.4 0.26 13.42 0.26 11.36C0.26 5.74 4.86 1.17 10.5 1.17C16.15 1.17 20.74 5.74 20.74 11.36C20.74 16.98 16.15 21.56 10.5 21.56C9.03 21.56 7.61 21.25 6.28 20.65C6.21 20.62 6.12 20.59 5.98 20.61L0.57 21.42ZM19.71 23.78C18.38 24.38 16.96 24.69 15.49 24.69C13.21 24.69 11.01 23.93 9.23 22.56C9.65 22.61 10.07 22.63 10.5 22.63C16.74 22.63 21.82 17.58 21.82 11.36C21.82 9.17 21.19 7.12 20.09 5.39C23.48 7.1 25.73 10.62 25.73 14.49C25.73 16.55 25.11 18.53 23.95 20.23C23.85 20.37 23.83 20.56 23.9 20.73L25.42 24.55L20.01 23.74C19.91 23.72 19.81 23.74 19.71 23.78ZM12.93 13.78L15.22 13.78C15.52 13.78 15.76 13.54 15.76 13.24L15.76 9.49C15.76 9.19 15.52 8.95 15.22 8.95L12.93 8.95L12.93 6.66C12.93 6.37 12.69 6.13 12.39 6.13L8.62 6.13C8.32 6.13 8.08 6.37 8.08 6.66L8.08 8.95L5.78 8.95C5.48 8.95 5.24 9.19 5.24 9.49L5.24 13.24C5.24 13.54 5.48 13.78 5.78 13.78L8.08 13.78L8.08 16.06C8.08 16.36 8.32 16.6 8.62 16.6L12.39 16.6C12.69 16.6 12.93 16.36 12.93 16.06L12.93 13.78ZM11.85 15.53L9.16 15.53L9.16 13.24C9.16 12.94 8.92 12.7 8.62 12.7L6.32 12.7L6.32 10.02L8.62 10.02C8.92 10.02 9.16 9.78 9.16 9.49L9.16 7.2L11.85 7.2L11.85 9.49C11.85 9.78 12.09 10.02 12.39 10.02L14.68 10.02L14.68 12.7L12.39 12.7C12.09 12.7 11.85 12.94 11.85 13.24L11.85 15.53Z" stroke="#4269F4" stroke-opacity="1.000000" stroke-width="0.300000"/>
        </g>
    </symbol>
    <symbol viewBox="0 0 25 25" id="good-time">
        <g>
            <path d="M23.85 15.05C23.79 15.27 23.65 15.47 23.45 15.58C23.25 15.7 23.01 15.74 22.78 15.68C22.56 15.62 22.36 15.47 22.25 15.27C22.13 15.07 22.1 14.83 22.15 14.61C22.62 12.84 22.62 10.98 22.14 9.22C21.66 7.46 20.72 5.85 19.42 4.56C18.14 3.28 16.54 2.34 14.79 1.86C13.04 1.38 11.19 1.35 9.43 1.8C7.66 2.24 6.04 3.13 4.73 4.39C3.41 5.65 2.45 7.22 1.92 8.96C1.4 10.7 1.34 12.55 1.74 14.32C2.15 16.1 3 17.73 4.23 19.08C5.46 20.42 7.01 21.42 8.74 21.98C10.47 22.54 12.31 22.65 14.09 22.28C14.21 22.26 14.33 22.25 14.44 22.27C14.56 22.29 14.67 22.34 14.77 22.4C14.86 22.46 14.95 22.55 15.02 22.64C15.08 22.74 15.13 22.85 15.15 22.96C15.17 23.08 15.17 23.2 15.15 23.31C15.13 23.42 15.08 23.53 15.02 23.63C14.95 23.73 14.87 23.81 14.77 23.87C14.67 23.94 14.56 23.98 14.44 24C12.37 24.42 10.21 24.3 8.2 23.64C6.18 22.99 4.37 21.82 2.94 20.25C1.51 18.69 0.51 16.78 0.04 14.71C-0.43 12.64 -0.35 10.49 0.26 8.46C0.87 6.43 1.99 4.59 3.53 3.13C5.06 1.66 6.95 0.62 9 0.1C11.06 -0.41 13.21 -0.39 15.26 0.18C17.3 0.74 19.16 1.83 20.66 3.33C22.18 4.83 23.27 6.7 23.83 8.76C24.39 10.82 24.4 12.99 23.85 15.05ZM12.87 11.69L12.87 6.12C12.87 5.88 12.78 5.66 12.61 5.5C12.45 5.33 12.23 5.24 11.99 5.24C11.76 5.24 11.54 5.33 11.37 5.5C11.21 5.66 11.12 5.88 11.12 6.12L11.12 12.12C11.12 12.25 11.15 12.39 11.21 12.51C11.27 12.63 11.35 12.73 11.46 12.81L14.12 14.88C14.31 15.03 14.54 15.09 14.77 15.06C15 15.03 15.21 14.91 15.35 14.73C15.49 14.55 15.56 14.31 15.53 14.08C15.5 13.85 15.38 13.64 15.2 13.5L12.87 11.69ZM21.42 17.84L19.21 21.15C19.16 21.23 19.09 21.29 19.01 21.34C18.93 21.38 18.83 21.41 18.74 21.41C18.65 21.41 18.56 21.39 18.47 21.35C18.39 21.31 18.32 21.25 18.26 21.18L17.15 19.72C17.09 19.63 17 19.54 16.9 19.48C16.8 19.42 16.69 19.38 16.57 19.36C16.46 19.35 16.34 19.35 16.23 19.38C16.11 19.41 16.01 19.46 15.91 19.53C15.82 19.6 15.74 19.69 15.69 19.79C15.63 19.89 15.59 20.01 15.57 20.12C15.56 20.24 15.57 20.36 15.6 20.47C15.63 20.58 15.69 20.69 15.76 20.78L16.86 22.23C17.08 22.52 17.36 22.75 17.68 22.91C18.01 23.07 18.36 23.16 18.72 23.16L18.79 23.16C19.16 23.15 19.53 23.05 19.85 22.87C20.18 22.69 20.46 22.43 20.66 22.12L22.87 18.81C23 18.62 23.04 18.38 22.99 18.16C22.95 17.93 22.81 17.74 22.62 17.61C22.43 17.48 22.2 17.43 21.97 17.48C21.74 17.52 21.55 17.65 21.42 17.84Z" fill="#4269F4" fill-opacity="1.000000" fill-rule="nonzero"/>
            <path fill="none" d="M23.45 15.58C23.25 15.7 23.01 15.74 22.78 15.68C22.56 15.62 22.36 15.47 22.25 15.27C22.13 15.07 22.1 14.83 22.15 14.61C22.62 12.84 22.62 10.98 22.14 9.22C21.66 7.46 20.72 5.85 19.42 4.56C18.14 3.28 16.54 2.34 14.79 1.86C13.04 1.38 11.19 1.35 9.43 1.8C7.66 2.24 6.04 3.13 4.73 4.39C3.41 5.65 2.45 7.22 1.92 8.96C1.4 10.7 1.34 12.55 1.74 14.32C2.15 16.1 3 17.73 4.23 19.08C5.46 20.42 7.01 21.42 8.74 21.98C10.47 22.54 12.31 22.65 14.09 22.28C14.21 22.26 14.33 22.25 14.44 22.27C14.56 22.29 14.67 22.34 14.77 22.4C14.86 22.46 14.95 22.55 15.02 22.64C15.08 22.74 15.13 22.85 15.15 22.96C15.17 23.08 15.17 23.2 15.15 23.31C15.13 23.42 15.08 23.53 15.02 23.63C14.95 23.73 14.87 23.81 14.77 23.87C14.67 23.94 14.56 23.98 14.44 24C12.37 24.42 10.21 24.3 8.2 23.64C6.18 22.99 4.37 21.82 2.94 20.25C1.51 18.69 0.51 16.78 0.04 14.71C-0.43 12.64 -0.35 10.49 0.26 8.46C0.87 6.43 1.99 4.59 3.53 3.13C5.06 1.66 6.95 0.62 9 0.1C11.06 -0.41 13.21 -0.39 15.26 0.18C17.3 0.74 19.16 1.83 20.66 3.33C22.18 4.83 23.27 6.7 23.83 8.76C24.39 10.82 24.4 12.99 23.85 15.05C23.79 15.27 23.65 15.47 23.45 15.58ZM12.87 6.12C12.87 5.88 12.78 5.66 12.61 5.5C12.45 5.33 12.23 5.24 11.99 5.24C11.76 5.24 11.54 5.33 11.37 5.5C11.21 5.66 11.12 5.88 11.12 6.12L11.12 12.12C11.12 12.25 11.15 12.39 11.21 12.51C11.27 12.63 11.35 12.73 11.46 12.81L14.12 14.88C14.31 15.03 14.54 15.09 14.77 15.06C15 15.03 15.21 14.91 15.35 14.73C15.49 14.55 15.56 14.31 15.53 14.08C15.5 13.85 15.38 13.64 15.2 13.5L12.87 11.69L12.87 6.12ZM19.21 21.15C19.16 21.23 19.09 21.29 19.01 21.34C18.93 21.38 18.83 21.41 18.74 21.41C18.65 21.41 18.56 21.39 18.47 21.35C18.39 21.31 18.32 21.25 18.26 21.18L17.15 19.72C17.09 19.63 17 19.54 16.9 19.48C16.8 19.42 16.69 19.38 16.57 19.36C16.46 19.35 16.34 19.35 16.23 19.38C16.11 19.41 16.01 19.46 15.91 19.53C15.82 19.6 15.74 19.69 15.69 19.79C15.63 19.89 15.59 20.01 15.57 20.12C15.56 20.24 15.57 20.36 15.6 20.47C15.63 20.58 15.69 20.69 15.76 20.78L16.86 22.23C17.08 22.52 17.36 22.75 17.68 22.91C18.01 23.07 18.36 23.16 18.72 23.16L18.79 23.16C19.16 23.15 19.53 23.05 19.85 22.87C20.18 22.69 20.46 22.43 20.66 22.12L22.87 18.81C23 18.62 23.04 18.38 22.99 18.16C22.95 17.93 22.81 17.74 22.62 17.61C22.43 17.48 22.2 17.43 21.97 17.48C21.74 17.52 21.55 17.65 21.42 17.84L19.21 21.15Z" stroke="#4269F4" stroke-opacity="1.000000" stroke-width="0.300000"/>
        </g>
    </symbol>
    <symbol viewBox="0 0 17 18" id="tax-deduct">
        <g>
            <path d="M5.61 0.47C4.88 -0.28 4.01 -0.65 3 -0.65C1.98 -0.65 1.1 -0.28 0.38 0.47C-0.35 1.23 -0.71 2.14 -0.7 3.2C-0.71 4.27 -0.35 5.17 0.38 5.92C1.1 6.68 1.98 7.06 3 7.06C4.01 7.06 4.88 6.68 5.61 5.92C6.33 5.17 6.7 4.27 6.7 3.2C6.7 2.14 6.33 1.23 5.61 0.47ZM3 0.81C3.63 0.81 4.17 1.04 4.62 1.51C5.07 1.98 5.29 2.54 5.3 3.2C5.29 3.86 5.07 4.43 4.62 4.89C4.17 5.36 3.63 5.6 3 5.6C2.36 5.6 1.82 5.36 1.37 4.89C0.92 4.43 0.7 3.86 0.7 3.2C0.7 2.54 0.92 1.98 1.37 1.51C1.82 1.04 2.36 0.81 3 0.81ZM15.65 16.38C16.35 15.66 16.7 14.78 16.7 13.75C16.7 12.73 16.35 11.85 15.65 11.12C14.95 10.4 14.11 10.04 13.13 10.04C12.14 10.04 11.29 10.4 10.6 11.12C9.9 11.85 9.56 12.73 9.56 13.75C9.56 14.78 9.9 15.66 10.6 16.38C11.29 17.11 12.14 17.47 13.13 17.47C14.11 17.47 14.95 17.11 15.65 16.38ZM15.3 13.75C15.3 14.38 15.08 14.91 14.66 15.35C14.24 15.79 13.73 16.01 13.13 16.01C12.53 16.01 12.01 15.79 11.59 15.35C11.16 14.91 10.96 14.38 10.96 13.75C10.96 13.13 11.16 12.59 11.59 12.15C12.01 11.71 12.53 11.49 13.13 11.49C13.73 11.49 14.24 11.71 14.66 12.15C15.08 12.59 15.3 13.13 15.3 13.75ZM16.49 0.59C16.62 0.45 16.7 0.28 16.7 0.08C16.7 -0.12 16.62 -0.3 16.49 -0.44C16.35 -0.58 16.19 -0.65 16 -0.65C15.8 -0.65 15.64 -0.58 15.5 -0.44L-0.5 16.22C-0.64 16.37 -0.7 16.54 -0.7 16.74C-0.7 16.95 -0.64 17.12 -0.5 17.25C-0.36 17.4 -0.2 17.47 0 17.47C0.19 17.47 0.35 17.4 0.48 17.25L16.49 0.59Z" fill="#4269F4" fill-opacity="1.000000" fill-rule="nonzero"/>
            <path fill="none" d="M3 -0.65C1.98 -0.65 1.1 -0.28 0.38 0.47C-0.35 1.23 -0.71 2.14 -0.7 3.2C-0.71 4.27 -0.35 5.17 0.38 5.92C1.1 6.68 1.98 7.06 3 7.06C4.01 7.06 4.88 6.68 5.61 5.92C6.33 5.17 6.7 4.27 6.7 3.2C6.7 2.14 6.33 1.23 5.61 0.47C4.88 -0.28 4.01 -0.65 3 -0.65ZM4.62 1.51C5.07 1.98 5.29 2.54 5.3 3.2C5.29 3.86 5.07 4.43 4.62 4.89C4.17 5.36 3.63 5.6 3 5.6C2.36 5.6 1.82 5.36 1.37 4.89C0.92 4.43 0.7 3.86 0.7 3.2C0.7 2.54 0.92 1.98 1.37 1.51C1.82 1.04 2.36 0.81 3 0.81C3.63 0.81 4.17 1.04 4.62 1.51ZM16.7 13.75C16.7 12.73 16.35 11.85 15.65 11.12C14.95 10.4 14.11 10.04 13.13 10.04C12.14 10.04 11.29 10.4 10.6 11.12C9.9 11.85 9.56 12.73 9.56 13.75C9.56 14.78 9.9 15.66 10.6 16.38C11.29 17.11 12.14 17.47 13.13 17.47C14.11 17.47 14.95 17.11 15.65 16.38C16.35 15.66 16.7 14.78 16.7 13.75ZM14.66 15.35C14.24 15.79 13.73 16.01 13.13 16.01C12.53 16.01 12.01 15.79 11.59 15.35C11.16 14.91 10.96 14.38 10.96 13.75C10.96 13.13 11.16 12.59 11.59 12.15C12.01 11.71 12.53 11.49 13.13 11.49C13.73 11.49 14.24 11.71 14.66 12.15C15.08 12.59 15.3 13.13 15.3 13.75C15.3 14.38 15.08 14.91 14.66 15.35ZM16.7 0.08C16.7 -0.12 16.62 -0.3 16.49 -0.44C16.35 -0.58 16.19 -0.65 16 -0.65C15.8 -0.65 15.64 -0.58 15.5 -0.44L-0.5 16.22C-0.64 16.37 -0.7 16.54 -0.7 16.74C-0.7 16.95 -0.64 17.12 -0.5 17.25C-0.36 17.4 -0.2 17.47 0 17.47C0.19 17.47 0.35 17.4 0.48 17.25L16.49 0.59C16.62 0.45 16.7 0.28 16.7 0.08Z" stroke="#4269F4" stroke-opacity="1.000000" stroke-width="0.300000"/>
        </g>
    </symbol>
    <symbol viewBox="0 0 27 24" id="payment-options">
        <g>
            <path d="M21.61 12.43L21.61 2.97C21.61 2.23 21.01 1.63 20.27 1.63L18.65 1.63L18.65 1.31C18.65 0.52 18 -0.13 17.21 -0.13L17.12 -0.13C16.33 -0.13 15.68 0.52 15.68 1.31L15.68 1.63L12.07 1.63L12.07 1.31C12.07 0.52 11.42 -0.13 10.63 -0.13L10.54 -0.13C9.75 -0.13 9.1 0.52 9.1 1.31L9.1 1.63L5.44 1.63L5.44 1.31C5.44 0.52 4.8 -0.13 4.01 -0.13L3.92 -0.13C3.13 -0.13 2.48 0.52 2.48 1.31L2.48 1.63L0.9 1.63C0.16 1.63 -0.44 2.23 -0.44 2.97L-0.44 18.56C-0.44 19.3 0.16 19.9 0.9 19.9L16.38 19.9C17.21 21.66 19.02 22.91 21.15 22.91C24.07 22.91 26.43 20.55 26.43 17.63C26.43 14.94 24.3 12.67 21.61 12.43ZM16.65 1.31C16.65 1.03 16.89 0.8 17.16 0.8L17.26 0.8C17.53 0.8 17.77 1.03 17.77 1.31L17.77 2.88C17.77 3.16 17.53 3.39 17.26 3.39L17.16 3.39C16.89 3.39 16.65 3.16 16.65 2.88L16.65 1.31ZM10.03 1.31C10.03 1.03 10.26 0.8 10.54 0.8L10.63 0.8C10.91 0.8 11.14 1.03 11.14 1.31L11.14 2.88C11.14 3.16 10.91 3.39 10.63 3.39L10.54 3.39C10.26 3.39 10.03 3.16 10.03 2.88L10.03 1.31ZM3.45 1.31C3.45 1.03 3.68 0.8 3.96 0.8L4.05 0.8C4.33 0.8 4.56 1.03 4.56 1.31L4.56 2.88C4.56 3.16 4.33 3.39 4.05 3.39L3.96 3.39C3.68 3.39 3.45 3.16 3.45 2.88L3.45 1.31ZM0.9 2.56L2.53 2.56L2.53 2.88C2.53 3.67 3.17 4.32 3.96 4.32L4.05 4.32C4.84 4.32 5.49 3.67 5.49 2.88L5.49 2.56L9.15 2.56L9.15 2.88C9.15 3.67 9.8 4.32 10.59 4.32L10.68 4.32C11.47 4.32 12.11 3.67 12.11 2.88L12.11 2.56L15.77 2.56L15.77 2.88C15.77 3.67 16.42 4.32 17.21 4.32L17.3 4.32C18.09 4.32 18.74 3.67 18.74 2.88L18.74 2.56L20.36 2.56C20.59 2.56 20.78 2.74 20.78 2.97L20.78 5.43L0.49 5.43L0.49 2.97C0.49 2.74 0.67 2.56 0.9 2.56ZM0.9 19.02C0.67 19.02 0.49 18.83 0.49 18.56L0.49 6.36L20.68 6.36L20.68 12.43C18 12.67 15.87 14.94 15.87 17.67C15.87 18.14 15.91 18.6 16.05 19.02L0.9 19.02ZM21.15 22.03C18.74 22.03 16.79 20.09 16.79 17.67C16.79 15.26 18.74 13.32 21.15 13.32C23.56 13.32 25.5 15.26 25.5 17.67C25.5 20.09 23.56 22.03 21.15 22.03Z" fill="#4269F4" fill-opacity="1.000000" fill-rule="nonzero"/>
            <path fill="none" d="M21.61 2.97C21.61 2.23 21.01 1.63 20.27 1.63L18.65 1.63L18.65 1.31C18.65 0.52 18 -0.13 17.21 -0.13L17.12 -0.13C16.33 -0.13 15.68 0.52 15.68 1.31L15.68 1.63L12.07 1.63L12.07 1.31C12.07 0.52 11.42 -0.13 10.63 -0.13L10.54 -0.13C9.75 -0.13 9.1 0.52 9.1 1.31L9.1 1.63L5.44 1.63L5.44 1.31C5.44 0.52 4.8 -0.13 4.01 -0.13L3.92 -0.13C3.13 -0.13 2.48 0.52 2.48 1.31L2.48 1.63L0.9 1.63C0.16 1.63 -0.44 2.23 -0.44 2.97L-0.44 18.56C-0.44 19.3 0.16 19.9 0.9 19.9L16.38 19.9C17.21 21.66 19.02 22.91 21.15 22.91C24.07 22.91 26.43 20.55 26.43 17.63C26.43 14.94 24.3 12.67 21.61 12.43L21.61 2.97ZM17.16 0.8L17.26 0.8C17.53 0.8 17.77 1.03 17.77 1.31L17.77 2.88C17.77 3.16 17.53 3.39 17.26 3.39L17.16 3.39C16.89 3.39 16.65 3.16 16.65 2.88L16.65 1.31C16.65 1.03 16.89 0.8 17.16 0.8ZM10.54 0.8L10.63 0.8C10.91 0.8 11.14 1.03 11.14 1.31L11.14 2.88C11.14 3.16 10.91 3.39 10.63 3.39L10.54 3.39C10.26 3.39 10.03 3.16 10.03 2.88L10.03 1.31C10.03 1.03 10.26 0.8 10.54 0.8ZM3.96 0.8L4.05 0.8C4.33 0.8 4.56 1.03 4.56 1.31L4.56 2.88C4.56 3.16 4.33 3.39 4.05 3.39L3.96 3.39C3.68 3.39 3.45 3.16 3.45 2.88L3.45 1.31C3.45 1.03 3.68 0.8 3.96 0.8ZM2.53 2.56L2.53 2.88C2.53 3.67 3.17 4.32 3.96 4.32L4.05 4.32C4.84 4.32 5.49 3.67 5.49 2.88L5.49 2.56L9.15 2.56L9.15 2.88C9.15 3.67 9.8 4.32 10.59 4.32L10.68 4.32C11.47 4.32 12.11 3.67 12.11 2.88L12.11 2.56L15.77 2.56L15.77 2.88C15.77 3.67 16.42 4.32 17.21 4.32L17.3 4.32C18.09 4.32 18.74 3.67 18.74 2.88L18.74 2.56L20.36 2.56C20.59 2.56 20.78 2.74 20.78 2.97L20.78 5.43L0.49 5.43L0.49 2.97C0.49 2.74 0.67 2.56 0.9 2.56L2.53 2.56ZM0.49 18.56L0.49 6.36L20.68 6.36L20.68 12.43C18 12.67 15.87 14.94 15.87 17.67C15.87 18.14 15.91 18.6 16.05 19.02L0.9 19.02C0.67 19.02 0.49 18.83 0.49 18.56ZM16.79 17.67C16.79 15.26 18.74 13.32 21.15 13.32C23.56 13.32 25.5 15.26 25.5 17.67C25.5 20.09 23.56 22.03 21.15 22.03C18.74 22.03 16.79 20.09 16.79 17.67Z" stroke="#4269F4" stroke-opacity="1.000000" stroke-width="0.300000"/>
        </g>
    </symbol>
    <symbol viewBox="0 0 31 25" id="request">
        <g>
            <path d="M10.99 0C9.72 0 8.66 1.05 8.66 2.33L8.66 3.33L2.33 3.33C1.05 3.33 -0.01 4.39 -0.01 5.66L-0.01 17.66C-0.01 18.94 1.05 20 2.33 20L3.99 20L3.99 23C3.99 23.18 4.04 23.37 4.14 23.53C4.24 23.68 4.38 23.81 4.55 23.9C4.71 23.98 4.9 24.01 5.09 24C5.27 23.98 5.45 23.91 5.6 23.8L10.67 20L19 20C20.11 20 21.06 19.19 21.28 18.13L24.39 20.46C24.54 20.58 24.72 20.65 24.9 20.66C25.09 20.68 25.28 20.65 25.44 20.56C25.61 20.48 25.75 20.35 25.85 20.19C25.95 20.03 26 19.85 26 19.66L26 16.66L27.66 16.66C28.94 16.66 30 15.6 30 14.33L30 2.33C30 1.05 28.94 0 27.66 0L10.99 0ZM10.99 2L27.66 2C27.86 2 28 2.13 28 2.33L28 14.33C28 14.53 27.86 14.66 27.66 14.66L25 14.66C24.73 14.66 24.48 14.77 24.29 14.96C24.1 15.14 24 15.4 24 15.66L24 17.66L21.33 15.66L21.33 5.66C21.33 4.39 20.27 3.33 19 3.33L10.66 3.33L10.66 2.33C10.66 2.13 10.79 2 10.99 2ZM2.33 5.33L19 5.33C19.2 5.33 19.33 5.46 19.33 5.66L19.33 17.66C19.33 17.86 19.2 18 19 18L10.33 18C10.11 17.99 9.9 18.06 9.72 18.19L5.99 21L5.99 19C5.99 18.73 5.89 18.48 5.7 18.29C5.51 18.1 5.26 18 4.99 18L2.33 18C2.13 18 1.99 17.86 1.99 17.66L1.99 5.66C1.99 5.46 2.13 5.33 2.33 5.33ZM5.99 10.33C5.26 10.33 4.66 10.93 4.66 11.66C4.66 12.4 5.26 13 5.99 13C6.73 13 7.33 12.4 7.33 11.66C7.33 10.93 6.73 10.33 5.99 10.33ZM10.66 10.33C9.92 10.33 9.33 10.93 9.33 11.66C9.33 12.4 9.92 13 10.66 13C11.4 13 11.99 12.4 11.99 11.66C11.99 10.93 11.4 10.33 10.66 10.33ZM15.33 10.33C14.59 10.33 13.99 10.93 13.99 11.66C13.99 12.4 14.59 13 15.33 13C16.06 13 16.66 12.4 16.66 11.66C16.66 10.93 16.06 10.33 15.33 10.33Z" fill="#FFFFFF" fill-opacity="1.000000" fill-rule="nonzero"/>
        </g>
    </symbol>
    <symbol viewBox="0 0 19 24" id="pay-service">
        <g>
            <path d="M3.24 23.33C3.47 23.57 3.78 23.71 4.11 23.71C4.43 23.71 4.74 23.57 4.97 23.33C5.2 23.09 5.33 22.76 5.33 22.42L5.33 18.57L15.11 18.57C15.43 18.57 15.74 18.43 15.97 18.19C16.2 17.95 16.33 17.62 16.33 17.28C16.33 16.94 16.2 16.61 15.97 16.37C15.74 16.13 15.43 16 15.11 16L5.33 16L5.33 13.42L12.09 13.42C13.02 13.42 13.95 13.22 14.8 12.82C15.65 12.43 16.42 11.85 17.05 11.12C17.68 10.39 18.16 9.54 18.45 8.61C18.75 7.67 18.86 6.69 18.77 5.71C18.58 3.92 17.76 2.27 16.47 1.08C15.19 -0.1 13.53 -0.75 11.82 -0.72L6.55 -0.72C5.58 -0.72 4.65 -0.31 3.96 0.41C3.27 1.13 2.88 2.11 2.88 3.14L2.88 10.85L0.44 10.85C0.12 10.85 -0.2 10.99 -0.42 11.23C-0.65 11.47 -0.78 11.8 -0.78 12.14C-0.78 12.48 -0.65 12.81 -0.42 13.05C-0.2 13.29 0.12 13.42 0.44 13.42L2.88 13.42L2.88 16L0.44 16C0.12 16 -0.2 16.13 -0.42 16.37C-0.65 16.61 -0.78 16.94 -0.78 17.28C-0.78 17.62 -0.65 17.95 -0.42 18.19C-0.2 18.43 0.12 18.57 0.44 18.57L2.88 18.57L2.88 22.42C2.88 22.76 3.01 23.09 3.24 23.33ZM12.05 10.85L5.33 10.85L5.33 3.14C5.33 2.8 5.46 2.47 5.69 2.23C5.92 1.99 6.23 1.85 6.55 1.85L11.82 1.85C12.91 1.83 13.97 2.23 14.8 2.98C15.62 3.72 16.16 4.77 16.3 5.9C16.37 6.53 16.3 7.16 16.12 7.76C15.93 8.36 15.62 8.91 15.22 9.37C14.82 9.84 14.33 10.21 13.78 10.46C13.24 10.72 12.65 10.85 12.05 10.85Z" fill="#FFFFFF" fill-opacity="1.000000" fill-rule="evenodd"/>
        </g>
    </symbol>
    <symbol viewBox="0 0 27 27" id="remote-learn">
        <g>
            <path d="M26.25 -0.41L-0.26 -0.41C-0.59 -0.41 -0.83 -0.13 -0.83 0.19L-0.83 21.84C-0.83 22.16 -0.59 22.4 -0.26 22.4L8.71 22.4L7.86 25.48L6.34 25.48C6.02 25.48 5.75 25.74 5.75 26.07C5.75 26.39 6.02 26.66 6.34 26.66L19.65 26.66C19.97 26.66 20.23 26.39 20.23 26.07C20.23 25.74 19.97 25.48 19.65 25.48L18.12 25.48L17.28 22.4L26.25 22.4C26.57 22.4 26.82 22.17 26.82 21.84L26.82 0.19C26.82 -0.13 26.58 -0.41 26.25 -0.41ZM0.34 17.09L0.34 0.77L25.65 0.77L25.65 17.09L0.34 17.09ZM13.13 4.32L4.66 4.32C4.33 4.32 4.08 4.05 4.08 3.73C4.08 3.4 4.34 3.14 4.66 3.14L13.13 3.14C13.45 3.14 13.72 3.4 13.72 3.73C13.72 4.05 13.45 4.32 13.13 4.32ZM4.66 6.92L21.33 6.92C21.65 6.92 21.92 6.65 21.92 6.33C21.92 6 21.65 5.74 21.33 5.74L4.66 5.74C4.34 5.74 4.08 6 4.08 6.33C4.08 6.65 4.33 6.92 4.66 6.92ZM4.66 8.34L21.33 8.34C21.65 8.34 21.92 8.6 21.92 8.93C21.92 9.25 21.65 9.52 21.33 9.52L4.66 9.52C4.34 9.52 4.08 9.25 4.08 8.93C4.08 8.6 4.34 8.34 4.66 8.34ZM4.66 10.94L21.33 10.94C21.65 10.94 21.92 11.2 21.92 11.53C21.92 11.85 21.65 12.12 21.33 12.12L4.66 12.12C4.34 12.12 4.08 11.85 4.08 11.53C4.08 11.2 4.34 10.94 4.66 10.94ZM21.33 13.54L4.66 13.54C4.34 13.54 4.08 13.81 4.08 14.13C4.08 14.46 4.34 14.72 4.66 14.72L21.33 14.72C21.65 14.72 21.92 14.46 21.92 14.13C21.92 13.81 21.65 13.54 21.33 13.54ZM25.65 21.22L0.34 21.22L0.34 18.27L25.65 18.27L25.65 21.22ZM16.91 25.48L9.08 25.48L9.92 22.4L16.07 22.4L16.91 25.48Z" fill="#FFFFFF" fill-opacity="1.000000" fill-rule="evenodd"/>
            <path fill="none" d="M-0.26 -0.41C-0.59 -0.41 -0.83 -0.13 -0.83 0.19L-0.83 21.84C-0.83 22.16 -0.59 22.4 -0.26 22.4L8.71 22.4L7.86 25.48L6.34 25.48C6.02 25.48 5.75 25.74 5.75 26.07C5.75 26.39 6.02 26.66 6.34 26.66L19.65 26.66C19.97 26.66 20.23 26.39 20.23 26.07C20.23 25.74 19.97 25.48 19.65 25.48L18.12 25.48L17.28 22.4L26.25 22.4C26.57 22.4 26.82 22.17 26.82 21.84L26.82 0.19C26.82 -0.13 26.58 -0.41 26.25 -0.41L-0.26 -0.41ZM9.08 25.48L9.92 22.4L16.07 22.4L16.91 25.48L9.08 25.48ZM0.34 21.22L0.34 18.27L25.65 18.27L25.65 21.22L0.34 21.22ZM0.34 0.77L25.65 0.77L25.65 17.09L0.34 17.09L0.34 0.77ZM4.66 8.34C4.34 8.34 4.08 8.6 4.08 8.93C4.08 9.25 4.34 9.52 4.66 9.52L21.33 9.52C21.65 9.52 21.92 9.25 21.92 8.93C21.92 8.6 21.65 8.34 21.33 8.34L4.66 8.34ZM21.33 6.92C21.65 6.92 21.92 6.65 21.92 6.33C21.92 6 21.65 5.74 21.33 5.74L4.66 5.74C4.34 5.74 4.08 6 4.08 6.33C4.08 6.65 4.33 6.92 4.66 6.92L21.33 6.92ZM13.13 4.32C13.45 4.32 13.72 4.05 13.72 3.73C13.72 3.4 13.45 3.14 13.13 3.14L4.66 3.14C4.34 3.14 4.08 3.4 4.08 3.73C4.08 4.05 4.33 4.32 4.66 4.32L13.13 4.32ZM4.66 13.54C4.34 13.54 4.08 13.81 4.08 14.13C4.08 14.46 4.34 14.72 4.66 14.72L21.33 14.72C21.65 14.72 21.92 14.46 21.92 14.13C21.92 13.81 21.65 13.54 21.33 13.54L4.66 13.54ZM4.66 10.94C4.34 10.94 4.08 11.2 4.08 11.53C4.08 11.85 4.34 12.12 4.66 12.12L21.33 12.12C21.65 12.12 21.92 11.85 21.92 11.53C21.92 11.2 21.65 10.94 21.33 10.94L4.66 10.94Z" stroke="#FFFFFF" stroke-opacity="1.000000" stroke-width="0.300000"/>
        </g>
    </symbol>
    <symbol viewBox="0 0 25 33" id="scan-id-card">
        <g>
            <path d="M2.44 -0.47C0.82 -0.47 -0.5 0.86 -0.5 2.49L-0.5 29.12C-0.5 30.75 0.82 32.08 2.44 32.08L21.55 32.08C23.17 32.08 24.49 30.75 24.49 29.12L24.49 6.93C24.49 6.75 24.43 6.57 24.31 6.44L18.43 -0.22C18.36 -0.3 18.27 -0.36 18.18 -0.4C18.08 -0.45 17.98 -0.47 17.88 -0.47L2.44 -0.47ZM2.44 1.01L16.41 1.01L16.41 5.45C16.41 6.67 17.4 7.67 18.61 7.67L23.02 7.67L23.02 29.12C23.02 29.96 22.38 30.6 21.55 30.6L2.44 30.6C1.61 30.6 0.97 29.96 0.97 29.12L0.97 2.49C0.97 1.66 1.61 1.01 2.44 1.01ZM17.88 1.38L22.12 6.19L18.61 6.19C18.19 6.19 17.88 5.87 17.88 5.45L17.88 1.38ZM4.64 11.37C4.45 11.37 4.26 11.45 4.12 11.58C3.99 11.72 3.91 11.91 3.91 12.11C3.91 12.3 3.99 12.49 4.12 12.63C4.26 12.77 4.45 12.85 4.64 12.85L16.41 12.85C16.6 12.85 16.79 12.77 16.93 12.63C17.06 12.49 17.14 12.3 17.14 12.11C17.14 11.91 17.06 11.72 16.93 11.58C16.79 11.45 16.6 11.37 16.41 11.37L4.64 11.37ZM4.12 16.02C4.26 15.88 4.45 15.81 4.64 15.81L19.35 15.81C19.54 15.81 19.73 15.88 19.87 16.02C20 16.16 20.08 16.35 20.08 16.55C20.08 16.74 20 16.93 19.87 17.07C19.73 17.21 19.54 17.29 19.35 17.29L4.64 17.29C4.45 17.29 4.26 17.21 4.12 17.07C3.99 16.93 3.91 16.74 3.91 16.55C3.91 16.35 3.99 16.16 4.12 16.02ZM4.64 20.25C4.45 20.25 4.26 20.32 4.12 20.46C3.99 20.6 3.91 20.79 3.91 20.98C3.91 21.18 3.99 21.37 4.12 21.51C4.26 21.65 4.45 21.72 4.64 21.72L16.41 21.72C16.6 21.72 16.79 21.65 16.93 21.51C17.06 21.37 17.14 21.18 17.14 20.98C17.14 20.79 17.06 20.6 16.93 20.46C16.79 20.32 16.6 20.25 16.41 20.25L4.64 20.25ZM4.12 24.9C4.26 24.76 4.45 24.68 4.64 24.68L19.35 24.68C19.54 24.68 19.73 24.76 19.87 24.9C20 25.04 20.08 25.23 20.08 25.42C20.08 25.62 20 25.81 19.87 25.95C19.73 26.09 19.54 26.16 19.35 26.16L4.64 26.16C4.45 26.16 4.26 26.09 4.12 25.95C3.99 25.81 3.91 25.62 3.91 25.42C3.91 25.23 3.99 25.04 4.12 24.9Z" fill="#FFFFFF" fill-opacity="1.000000" fill-rule="evenodd"/>
        </g>
    </symbol>
    <symbol viewBox="0 0 30 18" id="get-documents">
        <g>
            <path d="M29.39 17.21C29.4 17.2 29.41 17.19 29.41 17.18C29.42 17.17 29.42 17.16 29.42 17.15C29.43 17.15 29.43 17.14 29.44 17.13C29.44 17.12 29.44 17.11 29.45 17.1C29.45 17.09 29.45 17.08 29.46 17.07C29.46 17.06 29.46 17.05 29.47 17.04C29.47 17.03 29.47 17.02 29.47 17.01C29.47 17 29.47 16.98 29.47 16.97C29.47 16.97 29.47 16.96 29.48 16.95C29.48 16.94 29.48 16.92 29.48 16.9L29.48 -0.13C29.48 -0.15 29.48 -0.17 29.48 -0.19C29.48 -0.19 29.48 -0.2 29.47 -0.21C29.47 -0.22 29.47 -0.23 29.47 -0.24C29.47 -0.25 29.47 -0.26 29.47 -0.27C29.46 -0.28 29.46 -0.29 29.46 -0.3C29.45 -0.31 29.45 -0.32 29.45 -0.33C29.44 -0.34 29.44 -0.35 29.44 -0.36C29.43 -0.37 29.43 -0.38 29.42 -0.39C29.42 -0.4 29.42 -0.41 29.41 -0.41C29.41 -0.42 29.4 -0.43 29.39 -0.44C29.39 -0.45 29.39 -0.46 29.38 -0.46C29.38 -0.48 29.36 -0.5 29.35 -0.51C29.35 -0.52 29.35 -0.52 29.34 -0.52C29.33 -0.53 29.33 -0.54 29.32 -0.55C29.31 -0.56 29.3 -0.57 29.29 -0.57C29.29 -0.58 29.28 -0.59 29.28 -0.59C29.27 -0.6 29.26 -0.61 29.25 -0.61C29.24 -0.62 29.24 -0.62 29.23 -0.62C29.22 -0.63 29.21 -0.63 29.2 -0.64C29.19 -0.65 29.19 -0.65 29.18 -0.66C29.17 -0.66 29.16 -0.67 29.16 -0.67C29.15 -0.68 29.14 -0.68 29.13 -0.69C29.12 -0.69 29.12 -0.69 29.11 -0.7C29.1 -0.7 29.09 -0.71 29.08 -0.71C29.07 -0.71 29.06 -0.71 29.05 -0.71C29.05 -0.72 29.03 -0.72 29.02 -0.72C29.01 -0.72 29.01 -0.72 29 -0.72C28.99 -0.72 28.98 -0.73 28.97 -0.73C28.95 -0.73 28.94 -0.73 28.93 -0.73C28.93 -0.73 28.92 -0.73 28.91 -0.73L-0.01 -0.73C-0.01 -0.73 -0.02 -0.73 -0.02 -0.73C-0.04 -0.73 -0.05 -0.73 -0.06 -0.73C-0.07 -0.73 -0.08 -0.72 -0.09 -0.72C-0.1 -0.72 -0.11 -0.72 -0.12 -0.72C-0.13 -0.72 -0.14 -0.72 -0.15 -0.71C-0.16 -0.71 -0.16 -0.71 -0.17 -0.71C-0.18 -0.7 -0.19 -0.7 -0.2 -0.7C-0.21 -0.69 -0.22 -0.69 -0.23 -0.69C-0.24 -0.68 -0.25 -0.68 -0.25 -0.67C-0.26 -0.67 -0.27 -0.66 -0.28 -0.66C-0.29 -0.65 -0.3 -0.65 -0.3 -0.64C-0.31 -0.64 -0.32 -0.63 -0.33 -0.62C-0.34 -0.62 -0.34 -0.62 -0.35 -0.61C-0.36 -0.61 -0.37 -0.6 -0.38 -0.59C-0.38 -0.59 -0.39 -0.58 -0.39 -0.57C-0.4 -0.57 -0.41 -0.56 -0.42 -0.55C-0.43 -0.54 -0.44 -0.53 -0.44 -0.52C-0.45 -0.52 -0.45 -0.52 -0.45 -0.51C-0.47 -0.5 -0.48 -0.48 -0.49 -0.46C-0.49 -0.46 -0.49 -0.45 -0.49 -0.44C-0.5 -0.43 -0.51 -0.42 -0.51 -0.41C-0.52 -0.4 -0.52 -0.39 -0.53 -0.39C-0.53 -0.38 -0.53 -0.37 -0.54 -0.36C-0.54 -0.35 -0.54 -0.34 -0.55 -0.33C-0.55 -0.32 -0.55 -0.31 -0.56 -0.3C-0.56 -0.29 -0.56 -0.28 -0.57 -0.27C-0.57 -0.26 -0.57 -0.25 -0.57 -0.24C-0.58 -0.23 -0.58 -0.21 -0.58 -0.21C-0.58 -0.2 -0.58 -0.2 -0.58 -0.19C-0.58 -0.17 -0.58 -0.15 -0.58 -0.13L-0.58 16.9C-0.58 16.92 -0.58 16.94 -0.58 16.95C-0.58 16.96 -0.58 16.96 -0.58 16.97C-0.58 16.99 -0.57 17 -0.57 17.01C-0.57 17.02 -0.57 17.03 -0.57 17.04C-0.56 17.04 -0.56 17.05 -0.56 17.07C-0.55 17.08 -0.55 17.09 -0.55 17.1C-0.54 17.11 -0.54 17.12 -0.54 17.13C-0.53 17.14 -0.53 17.15 -0.53 17.15C-0.52 17.16 -0.52 17.17 -0.51 17.18C-0.51 17.19 -0.5 17.2 -0.49 17.21C-0.49 17.22 -0.49 17.23 -0.49 17.23C-0.48 17.25 -0.46 17.26 -0.45 17.28L-0.45 17.28C-0.44 17.3 -0.43 17.31 -0.41 17.33C-0.41 17.33 -0.4 17.34 -0.39 17.35C-0.39 17.35 -0.38 17.36 -0.37 17.37C-0.36 17.37 -0.35 17.38 -0.34 17.39C-0.34 17.39 -0.33 17.4 -0.32 17.41C-0.31 17.41 -0.3 17.42 -0.3 17.42C-0.29 17.43 -0.28 17.43 -0.26 17.44C-0.25 17.45 -0.25 17.45 -0.24 17.45C-0.23 17.46 -0.22 17.46 -0.2 17.46C-0.2 17.47 -0.19 17.47 -0.19 17.47C-0.17 17.48 -0.16 17.48 -0.15 17.49C-0.14 17.49 -0.14 17.49 -0.13 17.49C-0.11 17.5 -0.1 17.5 -0.08 17.5C-0.08 17.5 -0.07 17.5 -0.07 17.5C-0.06 17.5 -0.04 17.51 -0.01 17.51L28.91 17.51C28.93 17.51 28.95 17.51 28.97 17.5C28.98 17.5 28.98 17.5 28.98 17.5C29 17.5 29.01 17.5 29.03 17.49C29.04 17.49 29.04 17.49 29.05 17.49C29.06 17.48 29.07 17.48 29.09 17.47C29.09 17.47 29.1 17.47 29.1 17.46C29.12 17.46 29.13 17.46 29.14 17.45C29.15 17.45 29.15 17.44 29.16 17.44C29.17 17.44 29.18 17.43 29.19 17.43C29.2 17.42 29.21 17.42 29.22 17.41C29.23 17.41 29.24 17.4 29.24 17.39C29.25 17.39 29.26 17.38 29.27 17.37C29.28 17.36 29.28 17.36 29.29 17.35C29.3 17.35 29.31 17.34 29.31 17.33C29.33 17.32 29.33 17.3 29.35 17.29L29.35 17.28C29.37 17.27 29.38 17.25 29.38 17.24C29.39 17.23 29.39 17.22 29.39 17.21ZM0.56 1.14L8.85 8.39L0.56 15.63L0.56 1.14ZM18.81 7.92L14.45 11.73L10.09 7.92L1.56 0.47L27.34 0.47L18.81 7.92ZM9.74 9.16L14.09 12.96C14.2 13.05 14.33 13.1 14.46 13.1C14.59 13.1 14.71 13.05 14.82 12.96L19.17 9.16L27.35 16.3L1.56 16.3L9.74 9.16ZM20.05 8.39L28.35 1.14L28.35 15.63L20.05 8.39Z" fill="#FFFFFF" fill-opacity="1.000000" fill-rule="nonzero"/>
            <path fill="none" d="M29.41 17.18C29.42 17.17 29.42 17.16 29.42 17.15C29.43 17.15 29.43 17.14 29.44 17.13C29.44 17.12 29.44 17.11 29.45 17.1C29.45 17.09 29.45 17.08 29.46 17.07C29.46 17.06 29.46 17.05 29.47 17.04C29.47 17.03 29.47 17.02 29.47 17.01C29.47 17 29.47 16.98 29.47 16.97C29.47 16.97 29.47 16.96 29.48 16.95C29.48 16.94 29.48 16.92 29.48 16.9L29.48 -0.13C29.48 -0.15 29.48 -0.17 29.48 -0.19C29.48 -0.19 29.48 -0.2 29.47 -0.21C29.47 -0.22 29.47 -0.23 29.47 -0.24C29.47 -0.25 29.47 -0.26 29.47 -0.27C29.46 -0.28 29.46 -0.29 29.46 -0.3C29.45 -0.31 29.45 -0.32 29.45 -0.33C29.44 -0.34 29.44 -0.35 29.44 -0.36C29.43 -0.37 29.43 -0.38 29.42 -0.39C29.42 -0.4 29.42 -0.41 29.41 -0.41C29.41 -0.42 29.4 -0.43 29.39 -0.44C29.39 -0.45 29.39 -0.46 29.38 -0.46C29.38 -0.48 29.36 -0.5 29.35 -0.51C29.35 -0.52 29.35 -0.52 29.34 -0.52C29.33 -0.53 29.33 -0.54 29.32 -0.55C29.31 -0.56 29.3 -0.57 29.29 -0.57C29.29 -0.58 29.28 -0.59 29.28 -0.59C29.27 -0.6 29.26 -0.61 29.25 -0.61C29.24 -0.62 29.24 -0.62 29.23 -0.62C29.22 -0.63 29.21 -0.63 29.2 -0.64C29.19 -0.65 29.19 -0.65 29.18 -0.66C29.17 -0.66 29.16 -0.67 29.16 -0.67C29.15 -0.68 29.14 -0.68 29.13 -0.69C29.12 -0.69 29.12 -0.69 29.11 -0.7C29.1 -0.7 29.09 -0.71 29.08 -0.71C29.07 -0.71 29.06 -0.71 29.05 -0.71C29.05 -0.72 29.03 -0.72 29.02 -0.72C29.01 -0.72 29.01 -0.72 29 -0.72C28.99 -0.72 28.98 -0.73 28.97 -0.73C28.95 -0.73 28.94 -0.73 28.93 -0.73C28.93 -0.73 28.92 -0.73 28.91 -0.73L-0.01 -0.73C-0.01 -0.73 -0.02 -0.73 -0.02 -0.73C-0.04 -0.73 -0.05 -0.73 -0.06 -0.73C-0.07 -0.73 -0.08 -0.72 -0.09 -0.72C-0.1 -0.72 -0.11 -0.72 -0.12 -0.72C-0.13 -0.72 -0.14 -0.72 -0.15 -0.71C-0.16 -0.71 -0.16 -0.71 -0.17 -0.71C-0.18 -0.7 -0.19 -0.7 -0.2 -0.7C-0.21 -0.69 -0.22 -0.69 -0.23 -0.69C-0.24 -0.68 -0.25 -0.68 -0.25 -0.67C-0.26 -0.67 -0.27 -0.66 -0.28 -0.66C-0.29 -0.65 -0.3 -0.65 -0.3 -0.64C-0.31 -0.64 -0.32 -0.63 -0.33 -0.62C-0.34 -0.62 -0.34 -0.62 -0.35 -0.61C-0.36 -0.61 -0.37 -0.6 -0.38 -0.59C-0.38 -0.59 -0.39 -0.58 -0.39 -0.57C-0.4 -0.57 -0.41 -0.56 -0.42 -0.55C-0.43 -0.54 -0.44 -0.53 -0.44 -0.52C-0.45 -0.52 -0.45 -0.52 -0.45 -0.51C-0.47 -0.5 -0.48 -0.48 -0.49 -0.46C-0.49 -0.46 -0.49 -0.45 -0.49 -0.44C-0.5 -0.43 -0.51 -0.42 -0.51 -0.41C-0.52 -0.4 -0.52 -0.39 -0.53 -0.39C-0.53 -0.38 -0.53 -0.37 -0.54 -0.36C-0.54 -0.35 -0.54 -0.34 -0.55 -0.33C-0.55 -0.32 -0.55 -0.31 -0.56 -0.3C-0.56 -0.29 -0.56 -0.28 -0.57 -0.27C-0.57 -0.26 -0.57 -0.25 -0.57 -0.24C-0.58 -0.23 -0.58 -0.21 -0.58 -0.21C-0.58 -0.2 -0.58 -0.2 -0.58 -0.19C-0.58 -0.17 -0.58 -0.15 -0.58 -0.13L-0.58 16.9C-0.58 16.92 -0.58 16.94 -0.58 16.95C-0.58 16.96 -0.58 16.96 -0.58 16.97C-0.58 16.99 -0.57 17 -0.57 17.01C-0.57 17.02 -0.57 17.03 -0.57 17.04C-0.56 17.04 -0.56 17.05 -0.56 17.07C-0.55 17.08 -0.55 17.09 -0.55 17.1C-0.54 17.11 -0.54 17.12 -0.54 17.13C-0.53 17.14 -0.53 17.15 -0.53 17.15C-0.52 17.16 -0.52 17.17 -0.51 17.18C-0.51 17.19 -0.5 17.2 -0.49 17.21C-0.49 17.22 -0.49 17.23 -0.49 17.23C-0.48 17.25 -0.46 17.26 -0.45 17.28L-0.45 17.28C-0.44 17.3 -0.43 17.31 -0.41 17.33C-0.41 17.33 -0.4 17.34 -0.39 17.35C-0.39 17.35 -0.38 17.36 -0.37 17.37C-0.36 17.37 -0.35 17.38 -0.34 17.39C-0.34 17.39 -0.33 17.4 -0.32 17.41C-0.31 17.41 -0.3 17.42 -0.3 17.42C-0.29 17.43 -0.28 17.43 -0.26 17.44C-0.25 17.45 -0.25 17.45 -0.24 17.45C-0.23 17.46 -0.22 17.46 -0.2 17.46C-0.2 17.47 -0.19 17.47 -0.19 17.47C-0.17 17.48 -0.16 17.48 -0.15 17.49C-0.14 17.49 -0.14 17.49 -0.13 17.49C-0.11 17.5 -0.1 17.5 -0.08 17.5C-0.08 17.5 -0.07 17.5 -0.07 17.5C-0.06 17.5 -0.04 17.51 -0.01 17.51L28.91 17.51C28.93 17.51 28.95 17.51 28.97 17.5C28.98 17.5 28.98 17.5 28.98 17.5C29 17.5 29.01 17.5 29.03 17.49C29.04 17.49 29.04 17.49 29.05 17.49C29.06 17.48 29.07 17.48 29.09 17.47C29.09 17.47 29.1 17.47 29.1 17.46C29.12 17.46 29.13 17.46 29.14 17.45C29.15 17.45 29.15 17.44 29.16 17.44C29.17 17.44 29.18 17.43 29.19 17.43C29.2 17.42 29.21 17.42 29.22 17.41C29.23 17.41 29.24 17.4 29.24 17.39C29.25 17.39 29.26 17.38 29.27 17.37C29.28 17.36 29.28 17.36 29.29 17.35C29.3 17.35 29.31 17.34 29.31 17.33C29.33 17.32 29.33 17.3 29.35 17.29L29.35 17.28C29.37 17.27 29.38 17.25 29.38 17.24C29.39 17.23 29.39 17.22 29.39 17.21C29.4 17.2 29.41 17.19 29.41 17.18ZM8.85 8.39L0.56 15.63L0.56 1.14L8.85 8.39ZM14.45 11.73L10.09 7.92L1.56 0.47L27.34 0.47L18.81 7.92L14.45 11.73ZM14.09 12.96C14.2 13.05 14.33 13.1 14.46 13.1C14.59 13.1 14.71 13.05 14.82 12.96L19.17 9.16L27.35 16.3L1.56 16.3L9.74 9.16L14.09 12.96ZM28.35 1.14L28.35 15.63L20.05 8.39L28.35 1.14Z" stroke="#FFFFFF" stroke-opacity="1" stroke-width="0.3"/>
        </g>
    </symbol>
    <symbol viewBox="0 0 12 12" id="big-view">
        <g>
            <path d="M10.43 11.07L7.61 8.25C7.51 8.16 7.47 8.05 7.47 7.93C7.47 7.81 7.51 7.7 7.61 7.61C7.7 7.52 7.81 7.47 7.93 7.47C8.05 7.47 8.16 7.52 8.25 7.61L11.07 10.43L11.07 7.87C11.07 7.75 11.11 7.64 11.19 7.55C11.28 7.45 11.39 7.41 11.53 7.41C11.67 7.41 11.79 7.45 11.87 7.53C11.95 7.62 11.99 7.73 12 7.87L11.99 11.27C11.99 11.38 11.98 11.48 11.94 11.56C11.91 11.64 11.85 11.71 11.78 11.78C11.71 11.85 11.64 11.91 11.56 11.94C11.48 11.98 11.38 11.99 11.27 11.99L7.86 12C7.74 12 7.63 11.95 7.54 11.87C7.45 11.79 7.41 11.67 7.41 11.53C7.41 11.39 7.45 11.28 7.53 11.19C7.61 11.11 7.73 11.07 7.87 11.07L10.43 11.07ZM1.56 11.07L4.12 11.07C4.24 11.07 4.35 11.11 4.44 11.19C4.54 11.28 4.58 11.39 4.58 11.53C4.58 11.67 4.54 11.79 4.46 11.87C4.37 11.95 4.26 11.99 4.12 12L0.72 11.99C0.61 11.99 0.51 11.98 0.43 11.94C0.35 11.91 0.28 11.85 0.21 11.78C0.14 11.71 0.08 11.64 0.05 11.56C0.01 11.48 0 11.38 0 11.27L0 7.87C0 7.75 0.04 7.64 0.12 7.55C0.2 7.46 0.31 7.41 0.46 7.41C0.6 7.41 0.71 7.45 0.79 7.54C0.87 7.62 0.92 7.73 0.91 7.87L0.91 10.43L3.74 7.61C3.83 7.52 3.94 7.47 4.06 7.47C4.18 7.47 4.29 7.52 4.38 7.61C4.48 7.7 4.52 7.81 4.52 7.93C4.52 8.05 4.48 8.16 4.38 8.25L1.56 11.07ZM11.08 1.56L8.25 4.38C8.16 4.47 8.05 4.52 7.93 4.52C7.81 4.52 7.7 4.47 7.61 4.38C7.51 4.29 7.47 4.18 7.47 4.06C7.47 3.94 7.51 3.83 7.61 3.74L10.43 0.92L7.87 0.92C7.75 0.92 7.64 0.88 7.55 0.8C7.45 0.71 7.41 0.6 7.41 0.46C7.41 0.32 7.45 0.2 7.53 0.12C7.62 0.04 7.73 0 7.87 0L11.27 0C11.38 0 11.48 0.01 11.56 0.05C11.64 0.08 11.71 0.14 11.78 0.21C11.85 0.28 11.91 0.35 11.94 0.43C11.98 0.52 11.99 0.61 11.99 0.72L12 4.13C12 4.25 11.95 4.36 11.87 4.45C11.79 4.53 11.68 4.58 11.53 4.58C11.39 4.58 11.28 4.54 11.2 4.45C11.12 4.37 11.07 4.26 11.08 4.12L11.08 1.56ZM0.92 1.56L0.92 4.13C0.92 4.25 0.87 4.36 0.79 4.45C0.71 4.54 0.6 4.58 0.46 4.58C0.32 4.58 0.2 4.54 0.12 4.46C0.04 4.38 0 4.26 0 4.12L0 0.72C0 0.61 0.01 0.52 0.05 0.43C0.08 0.35 0.14 0.28 0.21 0.21C0.28 0.14 0.35 0.08 0.43 0.05C0.51 0.01 0.61 0 0.72 0L4.13 0C4.25 0 4.36 0.04 4.45 0.12C4.54 0.2 4.58 0.31 4.58 0.45C4.58 0.59 4.54 0.71 4.46 0.79C4.38 0.87 4.26 0.91 4.12 0.91L1.56 0.91L4.38 3.74C4.48 3.83 4.52 3.94 4.52 4.06C4.52 4.18 4.48 4.29 4.38 4.38C4.29 4.47 4.18 4.52 4.06 4.52C3.94 4.52 3.83 4.47 3.74 4.38L0.92 1.56Z" fill="#FFFFFF" fill-opacity="1.000000" fill-rule="nonzero"/>
        </g>
    </symbol>
    <symbol viewBox="0 0 14 18" id="download">
        <g>
            <path d="M8.16 4.78L8.16 0L0.87 0C0.39 0 0 0.37 0 0.84L0 17.15C0 17.62 0.39 18 0.87 18L13.12 18C13.6 18 14 17.62 14 17.15L14 5.62L9.04 5.62C8.56 5.62 8.16 5.24 8.16 4.78ZM10.95 12.21L7.43 15.57C7.19 15.8 6.8 15.8 6.56 15.57L3.04 12.21C2.67 11.85 2.93 11.25 3.45 11.25L5.83 11.25L5.83 8.43C5.83 8.12 6.09 7.87 6.41 7.87L7.58 7.87C7.9 7.87 8.16 8.12 8.16 8.43L8.16 11.25L10.54 11.25C11.06 11.25 11.32 11.85 10.95 12.21ZM13.74 3.69L10.17 0.24C10.01 0.08 9.78 0 9.55 0L9.33 0L9.33 4.5L14 4.5L14 4.28C14 4.06 13.9 3.84 13.74 3.69Z" fill="#4269F4" fill-opacity="1.000000" fill-rule="nonzero"/>
        </g>
    </symbol>
    <symbol viewBox="0 0 30 18" id="pay-to-mail">
        <g>
            <path d="M29.39 17.21C29.4 17.2 29.41 17.19 29.41 17.18C29.42 17.17 29.42 17.16 29.42 17.15C29.43 17.15 29.43 17.14 29.44 17.13C29.44 17.12 29.44 17.11 29.45 17.1C29.45 17.09 29.45 17.08 29.46 17.07C29.46 17.06 29.46 17.05 29.47 17.04C29.47 17.03 29.47 17.02 29.47 17.01C29.47 17 29.47 16.98 29.47 16.97C29.47 16.97 29.47 16.96 29.48 16.95C29.48 16.94 29.48 16.92 29.48 16.9L29.48 -0.13C29.48 -0.15 29.48 -0.17 29.48 -0.19C29.48 -0.19 29.48 -0.2 29.47 -0.2C29.47 -0.22 29.47 -0.23 29.47 -0.24C29.47 -0.25 29.47 -0.26 29.47 -0.27C29.46 -0.28 29.46 -0.29 29.46 -0.3C29.45 -0.31 29.45 -0.32 29.45 -0.33C29.44 -0.34 29.44 -0.35 29.44 -0.36C29.43 -0.37 29.43 -0.38 29.42 -0.39C29.42 -0.4 29.42 -0.41 29.41 -0.41C29.41 -0.42 29.4 -0.43 29.39 -0.44C29.39 -0.45 29.39 -0.46 29.38 -0.46C29.38 -0.48 29.36 -0.5 29.35 -0.51C29.35 -0.51 29.35 -0.52 29.34 -0.52C29.33 -0.53 29.33 -0.54 29.32 -0.55C29.31 -0.56 29.3 -0.57 29.29 -0.57C29.29 -0.58 29.28 -0.59 29.28 -0.59C29.27 -0.6 29.26 -0.61 29.25 -0.61C29.24 -0.62 29.23 -0.62 29.23 -0.62C29.22 -0.63 29.21 -0.63 29.2 -0.64C29.19 -0.65 29.19 -0.65 29.18 -0.66C29.17 -0.66 29.16 -0.67 29.16 -0.67C29.15 -0.68 29.14 -0.68 29.13 -0.69C29.12 -0.69 29.12 -0.69 29.11 -0.7C29.1 -0.7 29.09 -0.71 29.08 -0.71C29.07 -0.71 29.06 -0.71 29.05 -0.71C29.05 -0.72 29.03 -0.72 29.02 -0.72C29.01 -0.72 29.01 -0.72 29 -0.72C28.99 -0.72 28.98 -0.73 28.97 -0.73C28.95 -0.73 28.94 -0.73 28.93 -0.73C28.93 -0.73 28.92 -0.73 28.91 -0.73L-0.01 -0.73C-0.01 -0.73 -0.02 -0.73 -0.02 -0.73C-0.04 -0.73 -0.05 -0.73 -0.06 -0.73C-0.07 -0.73 -0.08 -0.72 -0.09 -0.72C-0.1 -0.72 -0.11 -0.72 -0.12 -0.72C-0.13 -0.72 -0.14 -0.72 -0.15 -0.71C-0.16 -0.71 -0.16 -0.71 -0.17 -0.71C-0.18 -0.7 -0.19 -0.7 -0.2 -0.7C-0.21 -0.69 -0.22 -0.69 -0.23 -0.69C-0.24 -0.68 -0.25 -0.68 -0.25 -0.67C-0.26 -0.67 -0.27 -0.66 -0.28 -0.66C-0.29 -0.65 -0.3 -0.65 -0.3 -0.64C-0.31 -0.64 -0.32 -0.63 -0.33 -0.62C-0.34 -0.62 -0.34 -0.62 -0.35 -0.61C-0.36 -0.61 -0.37 -0.6 -0.38 -0.59C-0.38 -0.59 -0.39 -0.58 -0.39 -0.57C-0.4 -0.57 -0.41 -0.56 -0.42 -0.55C-0.43 -0.54 -0.44 -0.53 -0.44 -0.52C-0.45 -0.51 -0.45 -0.51 -0.45 -0.51C-0.47 -0.5 -0.48 -0.48 -0.49 -0.46C-0.49 -0.46 -0.49 -0.45 -0.49 -0.44C-0.5 -0.43 -0.51 -0.42 -0.51 -0.41C-0.52 -0.4 -0.52 -0.39 -0.53 -0.39C-0.53 -0.38 -0.53 -0.37 -0.54 -0.36C-0.54 -0.35 -0.54 -0.34 -0.55 -0.33C-0.55 -0.32 -0.55 -0.31 -0.56 -0.3C-0.56 -0.29 -0.56 -0.28 -0.57 -0.27C-0.57 -0.26 -0.57 -0.25 -0.57 -0.24C-0.58 -0.23 -0.58 -0.21 -0.58 -0.2C-0.58 -0.2 -0.58 -0.2 -0.58 -0.19C-0.58 -0.17 -0.58 -0.15 -0.58 -0.13L-0.58 16.9C-0.58 16.92 -0.58 16.94 -0.58 16.95C-0.58 16.96 -0.58 16.96 -0.58 16.97C-0.58 16.99 -0.57 17 -0.57 17.01C-0.57 17.02 -0.57 17.03 -0.57 17.04C-0.56 17.05 -0.56 17.05 -0.56 17.07C-0.55 17.08 -0.55 17.09 -0.55 17.1C-0.54 17.11 -0.54 17.12 -0.54 17.13C-0.53 17.14 -0.53 17.15 -0.53 17.15C-0.52 17.16 -0.52 17.17 -0.51 17.18C-0.51 17.19 -0.5 17.2 -0.49 17.21C-0.49 17.22 -0.49 17.23 -0.49 17.23C-0.48 17.25 -0.46 17.26 -0.45 17.28L-0.45 17.28C-0.44 17.3 -0.43 17.31 -0.41 17.33C-0.41 17.33 -0.4 17.34 -0.39 17.35C-0.39 17.36 -0.38 17.36 -0.37 17.37C-0.36 17.37 -0.35 17.38 -0.34 17.39C-0.34 17.39 -0.33 17.4 -0.32 17.41C-0.31 17.41 -0.3 17.42 -0.3 17.42C-0.29 17.43 -0.28 17.43 -0.26 17.44C-0.25 17.45 -0.25 17.45 -0.24 17.45C-0.23 17.46 -0.22 17.46 -0.2 17.46C-0.2 17.47 -0.19 17.47 -0.19 17.47C-0.17 17.48 -0.16 17.48 -0.15 17.49C-0.14 17.49 -0.14 17.49 -0.13 17.49C-0.11 17.5 -0.1 17.5 -0.08 17.5C-0.08 17.5 -0.07 17.5 -0.07 17.5C-0.06 17.5 -0.04 17.51 -0.01 17.51L28.91 17.51C28.93 17.51 28.95 17.51 28.97 17.5C28.98 17.5 28.98 17.5 28.98 17.5C29 17.5 29.01 17.5 29.03 17.49C29.04 17.49 29.04 17.49 29.05 17.49C29.06 17.48 29.07 17.48 29.09 17.47C29.09 17.47 29.1 17.47 29.1 17.46C29.12 17.46 29.13 17.46 29.14 17.45C29.15 17.45 29.15 17.44 29.16 17.44C29.17 17.44 29.18 17.43 29.19 17.43C29.2 17.42 29.21 17.42 29.22 17.41C29.23 17.41 29.23 17.4 29.24 17.39C29.25 17.39 29.26 17.38 29.27 17.37C29.28 17.36 29.28 17.36 29.29 17.35C29.3 17.35 29.31 17.34 29.31 17.33C29.33 17.32 29.33 17.3 29.35 17.29L29.35 17.28C29.37 17.27 29.38 17.26 29.38 17.24C29.39 17.23 29.39 17.22 29.39 17.21ZM0.55 1.14L8.85 8.39L0.55 15.63L0.55 1.14ZM18.81 7.92L14.45 11.73L10.09 7.92L1.56 0.47L27.34 0.47L18.81 7.92ZM9.74 9.16L14.09 12.96C14.2 13.05 14.33 13.1 14.46 13.1C14.59 13.1 14.71 13.05 14.82 12.96L19.17 9.16L27.35 16.3L1.56 16.3L9.74 9.16ZM20.05 8.39L28.35 1.14L28.35 15.63L20.05 8.39Z" fill="#4269F4" fill-opacity="1.000000" fill-rule="nonzero"/>
            <path fill="none" d="M29.41 17.18C29.42 17.17 29.42 17.16 29.42 17.15C29.43 17.15 29.43 17.14 29.44 17.13C29.44 17.12 29.44 17.11 29.45 17.1C29.45 17.09 29.45 17.08 29.46 17.07C29.46 17.06 29.46 17.05 29.47 17.04C29.47 17.03 29.47 17.02 29.47 17.01C29.47 17 29.47 16.98 29.47 16.97C29.47 16.97 29.47 16.96 29.48 16.95C29.48 16.94 29.48 16.92 29.48 16.9L29.48 -0.13C29.48 -0.15 29.48 -0.17 29.48 -0.19C29.48 -0.19 29.48 -0.2 29.47 -0.2C29.47 -0.22 29.47 -0.23 29.47 -0.24C29.47 -0.25 29.47 -0.26 29.47 -0.27C29.46 -0.28 29.46 -0.29 29.46 -0.3C29.45 -0.31 29.45 -0.32 29.45 -0.33C29.44 -0.34 29.44 -0.35 29.44 -0.36C29.43 -0.37 29.43 -0.38 29.42 -0.39C29.42 -0.4 29.42 -0.41 29.41 -0.41C29.41 -0.42 29.4 -0.43 29.39 -0.44C29.39 -0.45 29.39 -0.46 29.38 -0.46C29.38 -0.48 29.36 -0.5 29.35 -0.51C29.35 -0.51 29.35 -0.52 29.34 -0.52C29.33 -0.53 29.33 -0.54 29.32 -0.55C29.31 -0.56 29.3 -0.57 29.29 -0.57C29.29 -0.58 29.28 -0.59 29.28 -0.59C29.27 -0.6 29.26 -0.61 29.25 -0.61C29.24 -0.62 29.23 -0.62 29.23 -0.62C29.22 -0.63 29.21 -0.63 29.2 -0.64C29.19 -0.65 29.19 -0.65 29.18 -0.66C29.17 -0.66 29.16 -0.67 29.16 -0.67C29.15 -0.68 29.14 -0.68 29.13 -0.69C29.12 -0.69 29.12 -0.69 29.11 -0.7C29.1 -0.7 29.09 -0.71 29.08 -0.71C29.07 -0.71 29.06 -0.71 29.05 -0.71C29.05 -0.72 29.03 -0.72 29.02 -0.72C29.01 -0.72 29.01 -0.72 29 -0.72C28.99 -0.72 28.98 -0.73 28.97 -0.73C28.95 -0.73 28.94 -0.73 28.93 -0.73C28.93 -0.73 28.92 -0.73 28.91 -0.73L-0.01 -0.73C-0.01 -0.73 -0.02 -0.73 -0.02 -0.73C-0.04 -0.73 -0.05 -0.73 -0.06 -0.73C-0.07 -0.73 -0.08 -0.72 -0.09 -0.72C-0.1 -0.72 -0.11 -0.72 -0.12 -0.72C-0.13 -0.72 -0.14 -0.72 -0.15 -0.71C-0.16 -0.71 -0.16 -0.71 -0.17 -0.71C-0.18 -0.7 -0.19 -0.7 -0.2 -0.7C-0.21 -0.69 -0.22 -0.69 -0.23 -0.69C-0.24 -0.68 -0.25 -0.68 -0.25 -0.67C-0.26 -0.67 -0.27 -0.66 -0.28 -0.66C-0.29 -0.65 -0.3 -0.65 -0.3 -0.64C-0.31 -0.64 -0.32 -0.63 -0.33 -0.62C-0.34 -0.62 -0.34 -0.62 -0.35 -0.61C-0.36 -0.61 -0.37 -0.6 -0.38 -0.59C-0.38 -0.59 -0.39 -0.58 -0.39 -0.57C-0.4 -0.57 -0.41 -0.56 -0.42 -0.55C-0.43 -0.54 -0.44 -0.53 -0.44 -0.52C-0.45 -0.51 -0.45 -0.51 -0.45 -0.51C-0.47 -0.5 -0.48 -0.48 -0.49 -0.46C-0.49 -0.46 -0.49 -0.45 -0.49 -0.44C-0.5 -0.43 -0.51 -0.42 -0.51 -0.41C-0.52 -0.4 -0.52 -0.39 -0.53 -0.39C-0.53 -0.38 -0.53 -0.37 -0.54 -0.36C-0.54 -0.35 -0.54 -0.34 -0.55 -0.33C-0.55 -0.32 -0.55 -0.31 -0.56 -0.3C-0.56 -0.29 -0.56 -0.28 -0.57 -0.27C-0.57 -0.26 -0.57 -0.25 -0.57 -0.24C-0.58 -0.23 -0.58 -0.21 -0.58 -0.2C-0.58 -0.2 -0.58 -0.2 -0.58 -0.19C-0.58 -0.17 -0.58 -0.15 -0.58 -0.13L-0.58 16.9C-0.58 16.92 -0.58 16.94 -0.58 16.95C-0.58 16.96 -0.58 16.96 -0.58 16.97C-0.58 16.99 -0.57 17 -0.57 17.01C-0.57 17.02 -0.57 17.03 -0.57 17.04C-0.56 17.05 -0.56 17.05 -0.56 17.07C-0.55 17.08 -0.55 17.09 -0.55 17.1C-0.54 17.11 -0.54 17.12 -0.54 17.13C-0.53 17.14 -0.53 17.15 -0.53 17.15C-0.52 17.16 -0.52 17.17 -0.51 17.18C-0.51 17.19 -0.5 17.2 -0.49 17.21C-0.49 17.22 -0.49 17.23 -0.49 17.23C-0.48 17.25 -0.46 17.26 -0.45 17.28L-0.45 17.28C-0.44 17.3 -0.43 17.31 -0.41 17.33C-0.41 17.33 -0.4 17.34 -0.39 17.35C-0.39 17.36 -0.38 17.36 -0.37 17.37C-0.36 17.37 -0.35 17.38 -0.34 17.39C-0.34 17.39 -0.33 17.4 -0.32 17.41C-0.31 17.41 -0.3 17.42 -0.3 17.42C-0.29 17.43 -0.28 17.43 -0.26 17.44C-0.25 17.45 -0.25 17.45 -0.24 17.45C-0.23 17.46 -0.22 17.46 -0.2 17.46C-0.2 17.47 -0.19 17.47 -0.19 17.47C-0.17 17.48 -0.16 17.48 -0.15 17.49C-0.14 17.49 -0.14 17.49 -0.13 17.49C-0.11 17.5 -0.1 17.5 -0.08 17.5C-0.08 17.5 -0.07 17.5 -0.07 17.5C-0.06 17.5 -0.04 17.51 -0.01 17.51L28.91 17.51C28.93 17.51 28.95 17.51 28.97 17.5C28.98 17.5 28.98 17.5 28.98 17.5C29 17.5 29.01 17.5 29.03 17.49C29.04 17.49 29.04 17.49 29.05 17.49C29.06 17.48 29.07 17.48 29.09 17.47C29.09 17.47 29.1 17.47 29.1 17.46C29.12 17.46 29.13 17.46 29.14 17.45C29.15 17.45 29.15 17.44 29.16 17.44C29.17 17.44 29.18 17.43 29.19 17.43C29.2 17.42 29.21 17.42 29.22 17.41C29.23 17.41 29.23 17.4 29.24 17.39C29.25 17.39 29.26 17.38 29.27 17.37C29.28 17.36 29.28 17.36 29.29 17.35C29.3 17.35 29.31 17.34 29.31 17.33C29.33 17.32 29.33 17.3 29.35 17.29L29.35 17.28C29.37 17.27 29.38 17.26 29.38 17.24C29.39 17.23 29.39 17.22 29.39 17.21C29.4 17.2 29.41 17.19 29.41 17.18ZM8.85 8.39L0.55 15.63L0.55 1.14L8.85 8.39ZM14.45 11.73L10.09 7.92L1.56 0.47L27.34 0.47L18.81 7.92L14.45 11.73ZM14.09 12.96C14.2 13.05 14.33 13.1 14.46 13.1C14.59 13.1 14.71 13.05 14.82 12.96L19.17 9.16L27.35 16.3L1.56 16.3L9.74 9.16L14.09 12.96ZM28.35 1.14L28.35 15.63L20.05 8.39L28.35 1.14Z" stroke="#4269F4" stroke-opacity="1.000000" stroke-width="0.300000"/>
        </g>
    </symbol>
    <symbol viewBox="0 0 31 21" id="pay-to-requisites">
        <g>
            <path d="M26.83 -0.47L3.16 -0.47C2.17 -0.47 1.22 -0.08 0.52 0.63C-0.18 1.33 -0.58 2.28 -0.58 3.27L-0.58 16.72C-0.58 17.71 -0.18 18.66 0.52 19.36C1.22 20.07 2.17 20.46 3.16 20.46L26.83 20.46C27.82 20.46 28.77 20.07 29.47 19.37C30.17 18.66 30.57 17.71 30.57 16.72L30.57 3.27C30.57 2.28 30.17 1.33 29.47 0.62C28.77 -0.08 27.82 -0.47 26.83 -0.47ZM0.43 5.15L29.56 5.15L29.56 7.94L0.43 7.94L0.43 5.15ZM3.16 0.53L26.83 0.53C27.55 0.53 28.25 0.82 28.76 1.34C29.27 1.85 29.56 2.54 29.56 3.27L29.56 4.14L0.43 4.14L0.43 3.27C0.43 2.54 0.72 1.85 1.23 1.34C1.74 0.82 2.44 0.53 3.16 0.53ZM26.83 19.46L3.16 19.46C2.44 19.46 1.74 19.17 1.23 18.65C0.72 18.14 0.43 17.45 0.43 16.72L0.43 8.94L29.56 8.94L29.56 16.72C29.56 17.45 29.27 18.14 28.76 18.65C28.25 19.17 27.55 19.46 26.83 19.46ZM3.9 13.82L5.87 13.82C6.17 13.82 6.46 13.7 6.67 13.49C6.88 13.28 6.99 13 7 12.7L7 11.4C6.99 11.11 6.88 10.82 6.67 10.61C6.46 10.4 6.17 10.28 5.87 10.28L3.9 10.28C3.6 10.28 3.32 10.4 3.11 10.61C2.9 10.82 2.78 11.11 2.78 11.4L2.78 12.7C2.78 13 2.9 13.28 3.11 13.49C3.32 13.7 3.6 13.82 3.9 13.82ZM3.79 11.4C3.79 11.37 3.8 11.34 3.82 11.32C3.84 11.3 3.87 11.29 3.9 11.29L5.87 11.29C5.91 11.29 5.93 11.3 5.96 11.32C5.98 11.34 5.99 11.37 5.99 11.4L5.99 12.7C5.99 12.73 5.98 12.76 5.96 12.78C5.93 12.8 5.91 12.81 5.87 12.81L3.9 12.81C3.87 12.81 3.84 12.8 3.82 12.78C3.8 12.76 3.79 12.73 3.79 12.7L3.79 11.4ZM17.13 15.64C17.12 15.78 17.07 15.91 16.98 16C16.88 16.09 16.76 16.15 16.62 16.15L3.31 16.15C3.18 16.15 3.05 16.09 2.96 16C2.86 15.9 2.81 15.78 2.81 15.64C2.81 15.51 2.86 15.38 2.96 15.29C3.05 15.19 3.18 15.14 3.31 15.14L16.62 15.14C16.69 15.14 16.75 15.15 16.82 15.18C16.88 15.21 16.93 15.24 16.98 15.29C17.03 15.34 17.06 15.39 17.09 15.45C17.11 15.51 17.13 15.58 17.13 15.64ZM10.91 17.53C10.91 17.6 10.9 17.66 10.87 17.72C10.85 17.78 10.81 17.84 10.76 17.88C10.72 17.93 10.66 17.97 10.6 17.99C10.54 18.02 10.47 18.03 10.41 18.03L3.31 18.03C3.25 18.03 3.18 18.02 3.12 18C3.05 17.97 3 17.93 2.95 17.89C2.9 17.84 2.86 17.79 2.84 17.72C2.81 17.66 2.8 17.6 2.8 17.53C2.8 17.46 2.81 17.39 2.84 17.33C2.86 17.27 2.9 17.22 2.95 17.17C3 17.12 3.05 17.08 3.12 17.06C3.18 17.04 3.25 17.02 3.31 17.03L10.41 17.03C10.47 17.03 10.54 17.04 10.6 17.06C10.66 17.09 10.72 17.13 10.77 17.17C10.81 17.22 10.85 17.28 10.87 17.34C10.9 17.4 10.91 17.46 10.91 17.53Z" fill="#4269F4" fill-opacity="1.000000" fill-rule="nonzero"/>
            <path fill="none" d="M3.16 -0.47C2.17 -0.47 1.22 -0.08 0.52 0.63C-0.18 1.33 -0.58 2.28 -0.58 3.27L-0.58 16.72C-0.58 17.71 -0.18 18.66 0.52 19.36C1.22 20.07 2.17 20.46 3.16 20.46L26.83 20.46C27.82 20.46 28.77 20.07 29.47 19.37C30.17 18.66 30.57 17.71 30.57 16.72L30.57 3.27C30.57 2.28 30.17 1.33 29.47 0.62C28.77 -0.08 27.82 -0.47 26.83 -0.47L3.16 -0.47ZM29.56 5.15L29.56 7.94L0.43 7.94L0.43 5.15L29.56 5.15ZM26.83 0.53C27.55 0.53 28.25 0.82 28.76 1.34C29.27 1.85 29.56 2.54 29.56 3.27L29.56 4.14L0.43 4.14L0.43 3.27C0.43 2.54 0.72 1.85 1.23 1.34C1.74 0.82 2.44 0.53 3.16 0.53L26.83 0.53ZM3.16 19.46C2.44 19.46 1.74 19.17 1.23 18.65C0.72 18.14 0.43 17.45 0.43 16.72L0.43 8.94L29.56 8.94L29.56 16.72C29.56 17.45 29.27 18.14 28.76 18.65C28.25 19.17 27.55 19.46 26.83 19.46L3.16 19.46ZM5.87 13.82C6.17 13.82 6.46 13.7 6.67 13.49C6.88 13.28 6.99 13 7 12.7L7 11.4C7 11.11 6.88 10.82 6.67 10.61C6.46 10.4 6.17 10.28 5.87 10.28L3.9 10.28C3.6 10.28 3.32 10.4 3.11 10.61C2.9 10.82 2.78 11.11 2.78 11.4L2.78 12.7C2.78 13 2.9 13.28 3.11 13.49C3.32 13.7 3.6 13.82 3.9 13.82L5.87 13.82ZM3.82 11.32C3.84 11.3 3.87 11.29 3.9 11.29L5.87 11.29C5.91 11.29 5.93 11.3 5.96 11.32C5.98 11.34 5.99 11.37 5.99 11.4L5.99 12.7C5.99 12.73 5.98 12.76 5.96 12.78C5.93 12.8 5.91 12.81 5.87 12.81L3.9 12.81C3.87 12.81 3.84 12.8 3.82 12.78C3.8 12.76 3.79 12.73 3.79 12.7L3.79 11.4C3.79 11.37 3.8 11.34 3.82 11.32ZM16.98 16C16.88 16.09 16.76 16.15 16.62 16.15L3.31 16.15C3.18 16.15 3.05 16.09 2.96 16C2.86 15.9 2.81 15.78 2.81 15.64C2.81 15.51 2.86 15.38 2.96 15.29C3.05 15.19 3.18 15.14 3.31 15.14L16.62 15.14C16.69 15.14 16.75 15.15 16.82 15.18C16.88 15.21 16.93 15.24 16.98 15.29C17.03 15.34 17.06 15.39 17.09 15.45C17.11 15.51 17.13 15.58 17.13 15.64C17.12 15.78 17.07 15.91 16.98 16ZM10.87 17.72C10.85 17.78 10.81 17.84 10.76 17.88C10.72 17.93 10.66 17.97 10.6 17.99C10.54 18.02 10.47 18.03 10.41 18.03L3.31 18.03C3.25 18.03 3.18 18.02 3.12 18C3.05 17.97 3 17.93 2.95 17.89C2.9 17.84 2.86 17.79 2.84 17.72C2.81 17.66 2.8 17.6 2.8 17.53C2.8 17.46 2.81 17.39 2.84 17.33C2.86 17.27 2.9 17.22 2.95 17.17C3 17.12 3.05 17.08 3.12 17.06C3.18 17.04 3.25 17.02 3.31 17.03L10.41 17.03C10.47 17.03 10.54 17.04 10.6 17.06C10.66 17.09 10.72 17.13 10.77 17.17C10.81 17.22 10.85 17.28 10.87 17.34C10.9 17.4 10.91 17.46 10.91 17.53C10.91 17.6 10.9 17.66 10.87 17.72Z" stroke="#4269F4" stroke-opacity="1" stroke-width="0.3"/>
        </g>
    </symbol>
    <symbol viewBox="0 0 9 12" id="pay-to-cash">
        <g>
            <path d="M1.77 11.38C1.63 11.38 1.48 11.31 1.38 11.19C1.28 11.08 1.22 10.92 1.22 10.76L1.22 6.42L0.11 6.42C-0.04 6.42 -0.18 6.36 -0.29 6.24C-0.39 6.13 -0.45 5.97 -0.45 5.8C-0.45 5.64 -0.39 5.48 -0.29 5.37C-0.18 5.25 -0.04 5.19 0.11 5.19L1.22 5.19L1.22 1.47C1.22 0.98 1.39 0.51 1.71 0.16C2.02 -0.19 2.44 -0.39 2.88 -0.39L5.28 -0.39C6.06 -0.4 6.81 -0.09 7.39 0.48C7.98 1.05 8.35 1.85 8.44 2.71C8.48 3.18 8.43 3.66 8.29 4.1C8.16 4.55 7.94 4.97 7.66 5.31C7.37 5.66 7.02 5.94 6.63 6.13C6.25 6.33 5.83 6.42 5.4 6.42L2.33 6.42L2.33 10.76C2.33 10.92 2.27 11.08 2.17 11.19C2.06 11.31 1.92 11.38 1.77 11.38ZM2.33 5.19L5.38 5.19C5.66 5.18 5.92 5.12 6.17 5C6.42 4.88 6.64 4.7 6.82 4.47C7.01 4.25 7.15 3.99 7.23 3.7C7.32 3.41 7.35 3.1 7.32 2.8C7.25 2.25 7.01 1.75 6.63 1.39C6.26 1.03 5.77 0.84 5.28 0.85L2.88 0.85C2.74 0.85 2.6 0.92 2.49 1.03C2.39 1.15 2.33 1.31 2.33 1.47L2.33 5.19Z" fill="#4269F4" fill-opacity="1" fill-rule="nonzero"/>
        </g>
    </symbol>
    <symbol viewBox="0 0 28 25" id="pay-to-credit">
        <g>
            <rect fill="#FFFFFF" fill-opacity="0"/>
            <g clip-path="url(#clip139_483)">
                <path d="M22.61 3.97L22.61 13.43C25.3 13.67 27.43 15.94 27.43 18.63C27.43 21.55 25.07 23.91 22.15 23.91C20.02 23.91 18.21 22.66 17.38 20.9L1.9 20.9C1.16 20.9 0.56 20.3 0.56 19.56L0.56 3.97C0.56 3.23 1.16 2.63 1.9 2.63L3.48 2.63L3.48 2.31C3.48 1.52 4.13 0.87 4.92 0.87L5.01 0.87C5.8 0.87 6.44 1.52 6.44 2.31L6.44 2.63L10.1 2.63L10.1 2.31C10.1 1.52 10.75 0.87 11.54 0.87L11.63 0.87C12.42 0.87 13.07 1.52 13.07 2.31L13.07 2.63L16.68 2.63L16.68 2.31C16.68 1.52 17.33 0.87 18.12 0.87L18.21 0.87C19 0.87 19.65 1.52 19.65 2.31L19.65 2.63L21.27 2.63C22.01 2.63 22.61 3.23 22.61 3.97ZM4.96 1.8C4.68 1.8 4.45 2.03 4.45 2.31L4.45 3.88C4.45 4.16 4.68 4.39 4.96 4.39L5.05 4.39C5.33 4.39 5.56 4.16 5.56 3.88L5.56 2.31C5.56 2.03 5.33 1.8 5.05 1.8L4.96 1.8ZM11.54 1.8C11.26 1.8 11.03 2.03 11.03 2.31L11.03 3.88C11.03 4.16 11.26 4.39 11.54 4.39L11.63 4.39C11.91 4.39 12.14 4.16 12.14 3.88L12.14 2.31C12.14 2.03 11.91 1.8 11.63 1.8L11.54 1.8ZM18.16 1.8C17.89 1.8 17.65 2.03 17.65 2.31L17.65 3.88C17.65 4.16 17.89 4.39 18.16 4.39L18.26 4.39C18.53 4.39 18.77 4.16 18.77 3.88L18.77 2.31C18.77 2.03 18.53 1.8 18.26 1.8L18.16 1.8ZM3.53 3.56L1.9 3.56C1.67 3.56 1.49 3.74 1.49 3.97L1.49 6.43L21.78 6.43L21.78 3.97C21.78 3.74 21.59 3.56 21.36 3.56L19.74 3.56L19.74 3.88C19.74 4.67 19.09 5.32 18.3 5.32L18.21 5.32C17.42 5.32 16.77 4.67 16.77 3.88L16.77 3.56L13.11 3.56L13.11 3.88C13.11 4.67 12.47 5.32 11.68 5.32L11.59 5.32C10.8 5.32 10.15 4.67 10.15 3.88L10.15 3.56L6.49 3.56L6.49 3.88C6.49 4.67 5.84 5.32 5.05 5.32L4.96 5.32C4.17 5.32 3.53 4.67 3.53 3.88L3.53 3.56ZM1.49 19.56C1.49 19.83 1.67 20.02 1.9 20.02L17.05 20.02C16.91 19.6 16.87 19.14 16.87 18.67C16.87 15.94 19 13.67 21.68 13.43L21.68 7.36L1.49 7.36L1.49 19.56ZM12.61 12.92L10.57 12.92C10.06 12.92 9.64 12.51 9.59 12L9.59 9.91C9.59 9.4 10.01 8.98 10.52 8.98L12.61 8.98C13.11 8.98 13.53 9.4 13.53 9.91L13.53 12C13.53 12.51 13.11 12.92 12.61 12.92ZM19.74 9.91L19.74 12C19.74 12.51 19.32 12.92 18.81 12.92L16.73 12.92C16.22 12.92 15.8 12.51 15.8 12L15.8 9.91C15.8 9.4 16.22 8.98 16.73 8.98L18.81 8.98C19.32 8.98 19.74 9.4 19.74 9.91ZM4.36 9.03L6.44 9.03C6.95 9.03 7.32 9.45 7.37 9.96L7.37 12.04C7.37 12.55 6.95 12.97 6.44 12.97L4.36 12.97C3.85 12.97 3.43 12.55 3.43 12.04L3.43 9.96C3.43 9.45 3.85 9.03 4.36 9.03ZM12.61 11.95L12.61 9.91L10.57 9.91L10.57 11.95L12.61 11.95ZM4.36 12L6.4 12L6.4 9.96L4.36 9.96L4.36 12ZM16.77 12L18.81 12L18.81 9.96L16.77 9.96L16.77 12ZM17.79 18.67C17.79 21.09 19.74 23.03 22.15 23.03C24.56 23.03 26.5 21.09 26.5 18.67C26.5 16.26 24.56 14.32 22.15 14.32C19.74 14.32 17.79 16.26 17.79 18.67ZM4.36 14.46L6.44 14.46C6.95 14.46 7.32 14.87 7.37 15.38L7.37 17.47C7.37 17.98 6.95 18.4 6.44 18.4L4.36 18.4C3.85 18.4 3.43 17.98 3.43 17.47L3.43 15.38C3.43 14.87 3.85 14.46 4.36 14.46ZM11.08 16.82L12.93 14.96C13.11 14.83 13.39 14.78 13.58 14.96C13.67 15.06 13.72 15.17 13.72 15.29C13.72 15.41 13.67 15.52 13.58 15.61L11.4 17.84C11.31 17.93 11.22 17.98 11.08 17.98C10.94 17.98 10.85 17.93 10.75 17.84L9.41 16.45C9.32 16.36 9.27 16.24 9.27 16.12C9.27 16.01 9.32 15.89 9.41 15.8C9.59 15.61 9.87 15.61 10.06 15.8L11.08 16.82ZM4.41 15.43L4.41 17.47L6.44 17.47L6.44 15.43L4.41 15.43ZM22.61 18.21L23.63 18.21C23.86 18.21 24.09 18.4 24.09 18.67C24.09 18.95 23.91 19.14 23.63 19.14L22.15 19.14C21.87 19.14 21.68 18.95 21.68 18.67L21.68 16.08C21.68 15.8 21.87 15.61 22.15 15.61C22.43 15.61 22.61 15.8 22.61 16.08L22.61 18.21Z" fill="#4269F4" fill-opacity="1.000000" fill-rule="evenodd"/>
                <path fill="none" d="M4.36 9.03C3.85 9.03 3.43 9.45 3.43 9.96L3.43 12.04C3.43 12.55 3.85 12.97 4.36 12.97L6.44 12.97C6.95 12.97 7.37 12.55 7.37 12.04L7.37 9.96C7.32 9.45 6.95 9.03 6.44 9.03L4.36 9.03ZM4.36 12L4.36 9.96L6.4 9.96L6.4 12L4.36 12ZM12.61 12.92C13.11 12.92 13.53 12.51 13.53 12L13.53 9.91C13.53 9.4 13.11 8.98 12.61 8.98L10.52 8.98C10.01 8.98 9.59 9.4 9.59 9.91L9.59 12C9.64 12.51 10.06 12.92 10.57 12.92L12.61 12.92ZM12.61 11.95L10.57 11.95L10.57 9.91L12.61 9.91L12.61 11.95ZM19.74 9.91C19.74 9.4 19.32 8.98 18.81 8.98L16.73 8.98C16.22 8.98 15.8 9.4 15.8 9.91L15.8 12C15.8 12.51 16.22 12.92 16.73 12.92L18.81 12.92C19.32 12.92 19.74 12.51 19.74 12L19.74 9.91ZM16.77 12L16.77 9.96L18.81 9.96L18.81 12L16.77 12ZM4.36 14.46C3.85 14.46 3.43 14.87 3.43 15.38L3.43 17.47C3.43 17.98 3.85 18.4 4.36 18.4L6.44 18.4C6.95 18.4 7.37 17.98 7.37 17.47L7.37 15.38C7.32 14.87 6.95 14.46 6.44 14.46L4.36 14.46ZM4.41 15.43L6.44 15.43L6.44 17.47L4.41 17.47L4.41 15.43ZM11.08 16.82L10.06 15.8C9.87 15.61 9.59 15.61 9.41 15.8C9.22 15.98 9.22 16.26 9.41 16.45L10.75 17.84C10.85 17.93 10.94 17.98 11.08 17.98C11.22 17.98 11.31 17.93 11.4 17.84L13.58 15.61C13.76 15.43 13.76 15.15 13.58 14.96C13.39 14.78 13.11 14.83 12.93 14.96L11.08 16.82ZM22.61 3.97C22.61 3.23 22.01 2.63 21.27 2.63L19.65 2.63L19.65 2.31C19.65 1.52 19 0.87 18.21 0.87L18.12 0.87C17.33 0.87 16.68 1.52 16.68 2.31L16.68 2.63L13.07 2.63L13.07 2.31C13.07 1.52 12.42 0.87 11.63 0.87L11.54 0.87C10.75 0.87 10.1 1.52 10.1 2.31L10.1 2.63L6.44 2.63L6.44 2.31C6.44 1.52 5.8 0.87 5.01 0.87L4.92 0.87C4.13 0.87 3.48 1.52 3.48 2.31L3.48 2.63L1.9 2.63C1.16 2.63 0.56 3.23 0.56 3.97L0.56 19.56C0.56 20.3 1.16 20.9 1.9 20.9L17.38 20.9C18.21 22.66 20.02 23.91 22.15 23.91C25.07 23.91 27.43 21.55 27.43 18.63C27.43 15.94 25.3 13.67 22.61 13.43L22.61 3.97ZM18.16 1.8L18.26 1.8C18.53 1.8 18.77 2.03 18.77 2.31L18.77 3.88C18.77 4.16 18.53 4.39 18.26 4.39L18.16 4.39C17.89 4.39 17.65 4.16 17.65 3.88L17.65 2.31C17.65 2.03 17.89 1.8 18.16 1.8ZM11.54 1.8L11.63 1.8C11.91 1.8 12.14 2.03 12.14 2.31L12.14 3.88C12.14 4.16 11.91 4.39 11.63 4.39L11.54 4.39C11.26 4.39 11.03 4.16 11.03 3.88L11.03 2.31C11.03 2.03 11.26 1.8 11.54 1.8ZM4.96 1.8L5.05 1.8C5.33 1.8 5.56 2.03 5.56 2.31L5.56 3.88C5.56 4.16 5.33 4.39 5.05 4.39L4.96 4.39C4.68 4.39 4.45 4.16 4.45 3.88L4.45 2.31C4.45 2.03 4.68 1.8 4.96 1.8ZM3.53 3.56L3.53 3.88C3.53 4.67 4.17 5.32 4.96 5.32L5.05 5.32C5.84 5.32 6.49 4.67 6.49 3.88L6.49 3.56L10.15 3.56L10.15 3.88C10.15 4.67 10.8 5.32 11.59 5.32L11.68 5.32C12.47 5.32 13.11 4.67 13.11 3.88L13.11 3.56L16.77 3.56L16.77 3.88C16.77 4.67 17.42 5.32 18.21 5.32L18.3 5.32C19.09 5.32 19.74 4.67 19.74 3.88L19.74 3.56L21.36 3.56C21.59 3.56 21.78 3.74 21.78 3.97L21.78 6.43L1.49 6.43L1.49 3.97C1.49 3.74 1.67 3.56 1.9 3.56L3.53 3.56ZM1.49 19.56L1.49 7.36L21.68 7.36L21.68 13.43C19 13.67 16.87 15.94 16.87 18.67C16.87 19.14 16.91 19.6 17.05 20.02L1.9 20.02C1.67 20.02 1.49 19.83 1.49 19.56ZM17.79 18.67C17.79 16.26 19.74 14.32 22.15 14.32C24.56 14.32 26.5 16.26 26.5 18.67C26.5 21.09 24.56 23.03 22.15 23.03C19.74 23.03 17.79 21.09 17.79 18.67ZM22.61 18.21L22.61 16.08C22.61 15.8 22.43 15.61 22.15 15.61C21.87 15.61 21.68 15.8 21.68 16.08L21.68 18.67C21.68 18.95 21.87 19.14 22.15 19.14L23.63 19.14C23.91 19.14 24.09 18.95 24.09 18.67C24.09 18.4 23.86 18.21 23.63 18.21L22.61 18.21Z" stroke="#4269F4" stroke-opacity="1.000000" stroke-width="0.300000"/>
            </g>
        </g>
    </symbol>
    <symbol viewBox="0 0 16 16" id="phone-foot">
        <g>
            <path d="M0 5.86C1.91 10.04 5.33 13.35 9.56 15.15L10.24 15.45C10.99 15.79 11.84 15.84 12.63 15.62C13.43 15.39 14.11 14.89 14.57 14.2L15.46 12.88C15.6 12.67 15.66 12.42 15.62 12.17C15.58 11.92 15.45 11.7 15.26 11.54L12.25 9.11C12.14 9.03 12.02 8.97 11.89 8.93C11.76 8.89 11.62 8.88 11.49 8.9C11.36 8.92 11.23 8.96 11.11 9.03C11 9.1 10.89 9.19 10.81 9.3L9.88 10.55C7.49 9.37 5.55 7.44 4.37 5.04L5.63 4.11C5.74 4.03 5.83 3.93 5.9 3.81C5.96 3.7 6.01 3.57 6.02 3.43C6.04 3.3 6.03 3.16 5.99 3.04C5.96 2.91 5.9 2.79 5.81 2.68L3.38 -0.33C3.22 -0.53 3 -0.66 2.75 -0.69C2.51 -0.73 2.25 -0.67 2.05 -0.54L0.71 0.36C0.02 0.82 -0.48 1.51 -0.7 2.31C-0.93 3.11 -0.87 3.96 -0.52 4.71L0 5.86Z" fill="#4269F4" fill-opacity="1.000000" fill-rule="nonzero"/>
        </g>
    </symbol>
    <symbol viewBox="0 0 12 16" id="geo">
        <path d="M6 16C6 16 12 10.31 12 6C12 4.4 11.36 2.88 10.24 1.75C9.11 0.63 7.59 0 6 0C4.4 0 2.88 0.63 1.75 1.75C0.63 2.88 0 4.4 0 6C0 10.31 6 16 6 16ZM6 9C5.2 9 4.44 8.68 3.87 8.12C3.31 7.55 3 6.79 3 6C3 5.2 3.31 4.44 3.87 3.87C4.44 3.31 5.2 3 6 3C6.79 3 7.55 3.31 8.12 3.87C8.68 4.44 9 5.2 9 6C9 6.79 8.68 7.55 8.12 8.12C7.55 8.68 6.79 9 6 9Z" fill="#4269F4" fill-opacity="1.000000" fill-rule="nonzero"/>
    </symbol>
    <symbol viewBox="0 0 18 20" id="requisites">
        <g>
            <path d="M1.17 1.17C0 2.34 0 4.22 0 8L0 12C0 15.77 0 17.65 1.17 18.82C2.34 20 4.22 20 8 20L10 20C13.77 20 15.65 20 16.82 18.82C18 17.65 18 15.77 18 12L18 8C18 4.22 18 2.34 16.82 1.17C15.65 0 13.77 0 10 0L8 0C4.22 0 2.34 0 1.17 1.17ZM5 7.25C4.8 7.25 4.61 7.32 4.46 7.46C4.32 7.61 4.25 7.8 4.25 8C4.25 8.19 4.32 8.38 4.46 8.53C4.61 8.67 4.8 8.75 5 8.75L13 8.75C13.19 8.75 13.38 8.67 13.53 8.53C13.67 8.38 13.75 8.19 13.75 8C13.75 7.8 13.67 7.61 13.53 7.46C13.38 7.32 13.19 7.25 13 7.25L5 7.25ZM5 11.25C4.8 11.25 4.61 11.32 4.46 11.46C4.32 11.61 4.25 11.8 4.25 12C4.25 12.19 4.32 12.38 4.46 12.53C4.61 12.67 4.8 12.75 5 12.75L10 12.75C10.19 12.75 10.38 12.67 10.53 12.53C10.67 12.38 10.75 12.19 10.75 12C10.75 11.8 10.67 11.61 10.53 11.46C10.38 11.32 10.19 11.25 10 11.25L5 11.25Z" fill="#4269F4" fill-opacity="1.000000" fill-rule="evenodd"/>
        </g>
    </symbol>
</svg>