<?xml version="1.0" standalone="no"?>
<!DOCTYPE svg PUBLIC "-//W3C//DTD SVG 20010904//EN"
 "http://www.w3.org/TR/2001/REC-SVG-20010904/DTD/svg10.dtd">
<svg version="1.0" xmlns="http://www.w3.org/2000/svg"
 width="391.000000pt" height="391.000000pt" viewBox="0 0 391.000000 391.000000"
 preserveAspectRatio="xMidYMid meet">
<metadata>
Created by potrace 1.14, written by Peter Selinger 2001-2017
</metadata>
<g transform="translate(0.000000,391.000000) scale(0.100000,-0.100000)"
fill="#000000" stroke="none">
<path d="M1872 3900 c-213 -29 -383 -166 -453 -366 -26 -74 -36 -227 -20 -307
20 -91 76 -192 150 -267 169 -172 422 -213 649 -105 93 44 203 150 244 237 60
123 74 274 38 414 -68 264 -327 432 -608 394z"/>
<path d="M470 2990 c-13 -8 -15 -185 -16 -1482 -1 -874 2 -1480 8 -1490 8 -16
30 -18 242 -18 190 0 236 3 245 14 9 11 11 277 9 1105 -2 600 -3 1091 -2 1091
1 0 25 -35 54 -77 54 -79 196 -281 417 -591 68 -95 123 -175 123 -177 0 -3
-51 -5 -114 -5 -79 0 -117 -4 -124 -12 -6 -8 -11 -135 -13 -326 -4 -270 -2
-314 11 -322 8 -5 79 -10 158 -10 l142 0 0 -333 c0 -246 3 -336 12 -345 17
-17 639 -17 656 0 9 9 12 99 12 345 l0 333 144 0 c138 0 146 1 160 22 14 19
16 67 16 318 0 234 -3 300 -14 315 -12 16 -26 18 -131 16 -103 -1 -117 1 -111
14 3 9 79 120 169 248 90 128 214 305 276 394 62 89 119 167 127 174 12 10 14
-140 14 -1070 0 -727 3 -1089 10 -1102 10 -18 24 -19 245 -19 219 0 235 1 244
19 15 27 14 2951 -1 2968 -8 10 -66 13 -247 13 -234 0 -238 0 -258 -22 -11
-13 -80 -111 -153 -218 -74 -107 -170 -247 -214 -310 -156 -226 -280 -407
-363 -527 l-84 -123 -172 0 -172 1 -54 77 c-30 42 -210 304 -399 582 -189 278
-351 513 -360 523 -14 15 -39 17 -246 17 -128 0 -238 -5 -246 -10z m1618
-1683 l3 -137 102 4 c56 2 121 2 145 -1 l42 -6 0 -128 0 -128 -146 -3 -146 -3
1 -125 c1 -69 -1 -134 -5 -143 -5 -15 -23 -17 -135 -17 l-129 0 0 145 0 144
-147 3 -148 3 -3 127 -3 127 148 3 148 3 3 138 3 138 132 -3 132 -3 3 -138z"/>
<path d="M1690 2583 c-47 -2 -89 -8 -93 -12 -12 -12 4 -40 102 -171 48 -63
113 -153 146 -199 65 -91 94 -110 130 -87 33 22 327 434 323 454 -3 15 -26 17
-263 18 -143 0 -298 -1 -345 -3z"/>
</g>
</svg>
